<svg width="52" height="52" viewBox="0 0 52 52" fill="none" xmlns="http://www.w3.org/2000/svg">
<circle cx="26" cy="26" r="26" fill="white"/>
<path d="M34.6491 2C34.9301 2.27986 35.0853 2.484 35.2788 2.81955C35.3665 2.97046 35.3665 2.97046 35.4559 3.12443C35.519 3.23417 35.5821 3.34391 35.6471 3.45697C35.7851 3.69501 35.9233 3.93301 36.0614 4.17099C36.0975 4.23331 36.1336 4.29564 36.1708 4.35985C36.5507 5.01558 36.9353 5.6685 37.3203 6.3213C37.8208 7.17026 38.3207 8.0196 38.8181 8.8704C38.9238 9.05123 38.9238 9.05123 39.0317 9.23571C39.1644 9.46274 39.297 9.68982 39.4294 9.91696C39.4882 10.0176 39.547 10.1182 39.6076 10.2218C39.6843 10.3534 39.6843 10.3534 39.7626 10.4876C39.8752 10.6757 39.9953 10.8592 40.1172 11.0414C40.1172 11.1492 40.1172 11.2571 40.1172 11.3682C38.831 11.5391 37.5448 11.7096 36.2585 11.8795C35.6612 11.9584 35.0639 12.0375 34.4667 12.1169C33.8903 12.1935 33.3138 12.2698 32.7372 12.3457C32.5174 12.3748 32.2975 12.404 32.0777 12.4333C31.7696 12.4744 31.4615 12.5149 31.1533 12.5554C31.0626 12.5676 30.9719 12.5798 30.8785 12.5924C30.4183 12.6522 29.9746 12.6885 29.5091 12.6754C29.813 12.2675 30.1213 11.9778 30.5344 11.6814C31.1335 11.2455 31.7165 10.7937 32.2929 10.3284C32.7661 9.95207 32.7661 9.95207 33.0087 9.95207C33.0087 9.88017 33.0087 9.80828 33.0087 9.73421C32.6079 9.62445 32.2069 9.51569 31.8057 9.40741C31.6506 9.36547 31.6506 9.36547 31.4924 9.32268C26.8684 8.09206 22.3456 8.41739 18.0261 10.4967C17.9542 10.5308 17.8823 10.5649 17.8083 10.6001C16.2127 11.3659 14.8176 12.4368 13.5423 13.6558C13.4381 13.7527 13.3339 13.8496 13.2266 13.9494C10.0055 16.9997 8.05616 21.5591 7.92725 25.9613C7.89257 27.5385 7.92113 29.109 8.29293 30.6492C8.31466 30.7396 8.33639 30.83 8.35877 30.9231C9.18085 34.2273 10.7394 37.1201 13.1049 39.5817C13.1848 39.6682 13.2647 39.7547 13.3471 39.8438C15.7535 42.3645 19.0447 43.9011 22.4006 44.7015C22.4822 44.7211 22.5637 44.7406 22.6478 44.7607C24.9742 45.2869 27.7391 45.2564 30.0559 44.7015C30.1467 44.6799 30.2374 44.6582 30.3309 44.6359C33.6157 43.8251 36.5446 42.2984 38.9763 39.9505C39.1168 39.8151 39.2594 39.6817 39.4021 39.5485C40.6012 38.4044 41.4583 37.0514 42.2959 35.6369C42.4031 35.46 42.5175 35.2874 42.6325 35.1155C42.9506 35.0864 43.2451 35.0776 43.563 35.0836C43.6549 35.084 43.7468 35.0845 43.8415 35.085C44.1358 35.0868 44.4299 35.0909 44.7241 35.095C44.9233 35.0967 45.1225 35.0982 45.3217 35.0995C45.8106 35.1031 46.2994 35.1088 46.7883 35.1155C46.562 35.8609 46.2604 36.5323 45.8929 37.2192C45.8124 37.3704 45.8124 37.3704 45.7303 37.5246C43.6407 41.4013 40.328 44.5653 36.3989 46.5534C36.3232 46.5924 36.2474 46.6313 36.1693 46.6715C30.9273 49.3469 24.7257 49.6361 19.1502 47.8755C14.0531 46.1804 9.635 42.6015 6.98059 37.9477C6.93789 37.8731 6.8952 37.7984 6.8512 37.7216C3.91803 32.5331 3.25815 26.4541 4.82454 20.7189C5.51113 18.331 6.58876 15.9856 8.07421 13.9826C8.15682 13.8695 8.23943 13.7565 8.32454 13.64C8.98357 12.7542 9.71493 11.9457 10.4802 11.1503C10.5967 11.0275 10.5967 11.0275 10.7156 10.9023C14.388 7.12455 19.9709 4.78782 25.2325 4.70118C25.5576 4.69763 25.8826 4.69633 26.2078 4.69608C26.3351 4.69597 26.3351 4.69597 26.4651 4.69586C27.8313 4.69773 29.1531 4.76567 30.4934 5.05011C30.6303 5.07902 30.6303 5.07902 30.77 5.10851C32.0726 5.39247 33.2696 5.80185 34.5398 6.24837C34.5759 4.84641 34.6119 3.44444 34.6491 2Z" fill="#F18637"/>
<path d="M11.0272 18.7756C11.1507 19.1447 11.1261 19.2053 10.9951 19.5543C10.9461 19.6899 10.9461 19.6899 10.8961 19.8281C10.8604 19.9257 10.8247 20.0232 10.7879 20.1237C9.29815 24.4082 9.6101 28.9585 11.5482 33.0503C13.557 37.1532 17.0619 40.1464 21.3564 41.6676C25.7574 43.1325 30.3966 42.7101 34.5399 40.6983C35.9911 39.9705 37.2784 39.036 38.477 37.9477C38.5804 37.8538 38.6839 37.7599 38.7905 37.6631C39.4453 37.0395 39.979 36.381 40.4876 35.6356C40.6119 35.4568 40.7467 35.2854 40.8829 35.1155C40.9912 35.1155 41.0995 35.1155 41.211 35.1155C40.743 36.7071 39.3692 38.0634 38.2582 39.2549C38.198 39.3208 38.1378 39.3867 38.0758 39.4545C35.3821 42.2834 31.1185 44.0593 27.2349 44.1818C25.5758 44.2232 23.9092 44.2422 22.2914 43.8301C22.2144 43.8108 22.1374 43.7916 22.058 43.7717C19.0299 42.9929 16.379 41.5712 14.1356 39.4045C13.9985 39.2728 13.8587 39.1438 13.7185 39.0154C11.2653 36.7081 9.83543 33.4579 9.168 30.2135C9.12761 30.0191 9.12761 30.0191 9.08641 29.8208C8.44 25.962 9.27947 22.2152 11.0272 18.7756Z" fill="#6E6E6E"/>
<path d="M19.1199 14.2004C19.3554 14.4861 19.4918 14.7063 19.5573 15.0719C19.4791 15.1369 19.4009 15.2019 19.3203 15.2689C16.6011 17.5981 15.0413 20.8982 14.7454 24.4401C14.4835 28.0372 15.7445 31.4672 18.0498 34.2049C20.4315 36.9234 23.4983 38.1864 26.9939 38.8192C26.9939 38.8911 26.9939 38.963 26.9939 39.037C24.7476 39.1555 22.5272 38.5273 20.5416 37.512C20.4167 37.4482 20.2918 37.3845 20.1631 37.3188C19.1994 36.8081 18.3891 36.1782 17.5888 35.4423C17.4315 35.299 17.4315 35.299 17.271 35.1529C14.6935 32.701 13.3633 29.2908 13.2007 25.7788C13.1175 21.996 14.5556 18.6088 17.1146 15.8468C17.733 15.2109 18.3697 14.6754 19.1199 14.2004Z" fill="#F18637"/>
<path d="M29.2329 22.7231C29.9686 23.2339 30.3918 23.8972 30.603 24.7669C30.7356 25.9532 30.5609 26.8014 29.8238 27.7353C29.1602 28.4489 28.3138 28.7599 27.3563 28.8246C26.3374 28.8036 25.5267 28.4181 24.8068 27.708C24.1544 26.9013 23.9391 26.0081 24.0413 24.9847C24.2714 23.9441 24.8254 23.2126 25.6817 22.5882C26.7472 21.9228 28.1957 22.1281 29.2329 22.7231Z" fill="#6E6E6E"/>
<path d="M18.3545 11.6951C18.7822 12.1109 19.1803 12.5452 19.5711 12.9954C19.6334 13.067 19.6956 13.1385 19.7597 13.2123C20.2131 13.7373 20.645 14.2759 21.07 14.8238C21.5052 15.3813 21.9668 15.9134 22.4337 16.4446C22.8619 16.9322 23.277 17.4285 23.6863 17.9319C23.9668 18.2735 24.2531 18.6098 24.5403 18.9459C25.3111 19.8495 26.0474 20.7788 26.7753 21.7169C26.5565 21.8293 26.3397 21.934 26.1106 22.0245C25.3412 22.3291 24.7229 22.7682 24.26 23.4598C24.1878 23.4598 24.1157 23.4598 24.0413 23.4598C23.634 22.651 23.227 21.8421 22.8203 21.033C22.6313 20.6571 22.4422 20.2811 22.2529 19.9053C21.4714 18.3535 20.6946 16.8003 19.9469 15.2319C19.5536 14.407 19.1439 13.5917 18.7234 12.7801C18.6745 12.6844 18.6257 12.5886 18.5754 12.4899C18.5326 12.4072 18.4899 12.3244 18.4458 12.2392C18.3545 12.0219 18.3545 12.0219 18.3545 11.6951Z" fill="#6E6E6E"/>
<path d="M27.1032 11.8039C26.7212 12.0576 26.3905 12.0941 25.9481 12.1579C24.0888 12.4624 22.503 13.1737 20.8696 14.0915C20.6828 13.952 20.5006 13.8063 20.3228 13.6558C20.3228 13.5839 20.3228 13.512 20.3228 13.4379C22.4373 12.3878 24.7059 11.656 27.1032 11.8039Z" fill="#F18637"/>
</svg>
