<svg width="160" height="50" viewBox="0 0 160 50" fill="none" xmlns="http://www.w3.org/2000/svg">
<g clip-path="url(#clip0_132_62)">
<path d="M33.6834 0C33.9644 0.279856 34.1196 0.483996 34.3131 0.819547C34.4008 0.970464 34.4008 0.970464 34.4902 1.12443C34.5533 1.23417 34.6164 1.34391 34.6814 1.45697C34.8194 1.69501 34.9576 1.93301 35.0957 2.17099C35.1318 2.23331 35.1679 2.29564 35.2051 2.35985C35.585 3.01558 35.9696 3.6685 36.3546 4.3213C36.8551 5.17026 37.355 6.0196 37.8524 6.8704C37.9581 7.05123 37.9581 7.05123 38.066 7.23571C38.1987 7.46274 38.3313 7.68982 38.4637 7.91697C38.5225 8.01758 38.5813 8.11819 38.6419 8.22185C38.7186 8.35341 38.7186 8.35341 38.7969 8.48764C38.9095 8.67568 39.0296 8.85923 39.1515 9.04139C39.1515 9.14924 39.1515 9.25708 39.1515 9.36819C37.8653 9.53913 36.5791 9.70961 35.2928 9.8795C34.6955 9.95841 34.0982 10.0375 33.501 10.1169C32.9246 10.1935 32.3481 10.2698 31.7715 10.3457C31.5517 10.3748 31.3318 10.404 31.112 10.4333C30.8039 10.4744 30.4958 10.5149 30.1876 10.5554C30.0969 10.5676 30.0062 10.5798 29.9128 10.5924C29.4526 10.6522 29.0089 10.6885 28.5434 10.6754C28.8473 10.2675 29.1556 9.97782 29.5687 9.68137C30.1678 9.24554 30.7508 8.79371 31.3272 8.32839C31.8004 7.95207 31.8004 7.95207 32.043 7.95207C32.043 7.88017 32.043 7.80828 32.043 7.73421C31.6422 7.62445 31.2412 7.51569 30.84 7.40741C30.6849 7.36547 30.6849 7.36547 30.5267 7.32268C25.9027 6.09206 21.3799 6.41739 17.0604 8.49673C16.9885 8.53084 16.9166 8.56494 16.8426 8.60008C15.247 9.36593 13.8519 10.4368 12.5766 11.6558C12.4724 11.7527 12.3682 11.8496 12.2609 11.9494C9.03981 14.9997 7.09046 19.5591 6.96156 23.9613C6.92687 25.5385 6.95543 27.109 7.32723 28.6492C7.34896 28.7396 7.37069 28.83 7.39307 28.9231C8.21515 32.2273 9.77367 35.1201 12.1392 37.5817C12.2191 37.6682 12.299 37.7547 12.3814 37.8438C14.7878 40.3645 18.079 41.9011 21.4349 42.7015C21.5165 42.7211 21.598 42.7406 21.6821 42.7607C24.0085 43.2869 26.7734 43.2564 29.0902 42.7015C29.181 42.6799 29.2717 42.6582 29.3652 42.6359C32.65 41.8251 35.5789 40.2984 38.0106 37.9505C38.1511 37.8151 38.2937 37.6817 38.4364 37.5485C39.6355 36.4044 40.4926 35.0514 41.3302 33.6369C41.4374 33.46 41.5518 33.2874 41.6668 33.1155C41.9849 33.0864 42.2794 33.0776 42.5973 33.0836C42.6892 33.084 42.7811 33.0845 42.8758 33.085C43.1701 33.0868 43.4642 33.0909 43.7584 33.095C43.9576 33.0967 44.1568 33.0982 44.356 33.0995C44.8449 33.1031 45.3337 33.1088 45.8226 33.1155C45.5963 33.8609 45.2947 34.5323 44.9272 35.2192C44.8467 35.3704 44.8467 35.3704 44.7646 35.5246C42.675 39.4013 39.3623 42.5653 35.4332 44.5534C35.3575 44.5924 35.2817 44.6313 35.2037 44.6715C29.9616 47.3469 23.76 47.6361 18.1845 45.8755C13.0875 44.1804 8.6693 40.6015 6.01489 35.9477C5.97219 35.8731 5.9295 35.7984 5.88551 35.7215C2.95233 30.5331 2.29246 24.4541 3.85884 18.7189C4.54543 16.331 5.62306 13.9856 7.10851 11.9826C7.19112 11.8695 7.27373 11.7565 7.35885 11.64C8.01787 10.7542 8.74923 9.94572 9.51447 9.15033C9.63098 9.02753 9.63098 9.02753 9.74985 8.90225C13.4223 5.12455 19.0052 2.78782 24.2668 2.70118C24.5919 2.69763 24.9169 2.69633 25.2421 2.69608C25.3694 2.69597 25.3694 2.69597 25.4994 2.69586C26.8656 2.69773 28.1874 2.76567 29.5277 3.05011C29.6646 3.07902 29.6646 3.07902 29.8043 3.10851C31.1069 3.39247 32.3039 3.80185 33.5741 4.24837C33.6102 2.84641 33.6462 1.44444 33.6834 0Z" fill="#F18637"/>
<path d="M125.329 13.3987C126.917 13.3987 128.504 13.3987 130.141 13.3987C130.065 13.9971 129.984 14.5011 129.829 15.073C129.808 15.1484 129.788 15.2238 129.767 15.3015C129.7 15.5496 129.632 15.7975 129.564 16.0454C129.516 16.2218 129.469 16.3981 129.421 16.5745C129.32 16.9479 129.218 17.3211 129.116 17.6943C128.958 18.2746 128.8 18.8551 128.643 19.4356C128.197 21.0782 127.749 22.7202 127.294 24.3605C127.263 24.4735 127.232 24.5866 127.199 24.7031C127.061 25.2025 126.922 25.7017 126.782 26.2005C126.734 26.3718 126.687 26.5431 126.639 26.7144C126.618 26.7872 126.598 26.86 126.576 26.935C126.43 27.4673 126.361 27.9924 126.313 28.5403C126.569 28.6241 126.569 28.6241 126.86 28.6492C127.253 28.3843 127.347 27.9381 127.485 27.5091C127.513 27.4236 127.541 27.3382 127.569 27.2501C127.98 25.9669 128.32 24.6628 128.67 23.3622C128.747 23.077 128.824 22.7919 128.901 22.5068C129.103 21.7629 129.304 21.0189 129.505 20.2747C129.809 19.1484 130.113 18.0223 130.418 16.8963C130.514 16.5442 130.609 16.192 130.704 15.8397C130.809 15.4494 130.915 15.0591 131.02 14.6688C131.052 14.5521 131.083 14.4354 131.115 14.3151C131.144 14.2097 131.172 14.1042 131.202 13.9955C131.239 13.8573 131.239 13.8573 131.277 13.7163C131.344 13.5076 131.344 13.5076 131.453 13.3987C131.604 13.3886 131.756 13.3859 131.907 13.3863C132.003 13.3863 132.1 13.3864 132.199 13.3864C132.304 13.3869 132.408 13.3875 132.516 13.3881C132.676 13.3883 132.676 13.3883 132.839 13.3885C133.181 13.3891 133.524 13.3905 133.866 13.3919C134.097 13.3924 134.328 13.3929 134.56 13.3934C135.128 13.3946 135.696 13.3964 136.265 13.3987C135.956 14.7501 135.608 16.0882 135.241 17.4249C135.185 17.6302 135.129 17.8354 135.073 18.0406C134.956 18.4686 134.838 18.8965 134.721 19.3243C134.573 19.8633 134.426 20.4025 134.278 20.9417C133.246 24.72 133.246 24.72 132.709 26.5429C132.659 26.7117 132.659 26.7117 132.609 26.8838C132.081 28.6488 131.306 30.0453 129.686 31.0398C127.931 31.9811 125.839 32.221 123.907 31.7032C122.958 31.3773 122.215 30.9581 121.72 30.0654C121.109 28.8037 121.58 27.2188 121.925 25.9396C121.972 25.7574 122.019 25.5753 122.067 25.3931C122.239 24.7345 122.416 24.0775 122.595 23.4205C122.632 23.2829 122.669 23.1453 122.708 23.0035C123.186 21.2377 123.669 19.4734 124.156 17.7099C124.552 16.2742 124.941 14.8368 125.329 13.3987Z" fill="#6E6E6E"/>
<path d="M46.5081 13.3836C46.5898 13.3838 46.6715 13.384 46.7556 13.3842C46.8403 13.3841 46.9251 13.3839 47.0124 13.3838C47.2902 13.3835 47.568 13.3842 47.8458 13.3851C47.987 13.3853 47.987 13.3853 48.131 13.3856C49.3009 13.3881 50.4701 13.3973 51.6393 13.4395C51.7433 13.4429 51.8474 13.4462 51.9546 13.4497C53.8641 13.5319 53.8641 13.5319 54.5647 14.0114C54.6778 14.0843 54.6778 14.0843 54.7933 14.1587C55.2931 14.6693 55.5 15.2521 55.5128 15.9579C55.5112 16.0413 55.5096 16.1246 55.508 16.2105C55.507 16.2994 55.506 16.3883 55.505 16.4799C55.4521 18.1055 54.9482 20.1905 53.8022 21.392C53.3234 21.7855 52.7632 21.9749 52.1656 22.1133C52.2237 22.1504 52.2817 22.1874 52.3416 22.2256C52.8952 22.604 53.3071 22.9733 53.4779 23.6383C53.5013 24.2383 53.4479 24.7329 53.2934 25.3179C53.2739 25.3928 53.2544 25.4677 53.2343 25.5449C53.1707 25.7879 53.1056 26.0305 53.0405 26.2731C52.996 26.4418 52.9516 26.6105 52.9072 26.7792C52.4925 28.3507 52.0574 29.9165 51.6188 31.4815C50.1391 31.4815 48.6594 31.4815 47.1349 31.4815C47.2037 31.0024 47.267 30.5914 47.3938 30.1349C47.4237 30.0261 47.4537 29.9173 47.4845 29.8052C47.5168 29.6897 47.549 29.5742 47.5822 29.4552C47.6507 29.206 47.7191 28.9567 47.7875 28.7075C47.8949 28.3181 48.0027 27.9288 48.1107 27.5395C48.2155 27.1616 48.3193 26.7833 48.4229 26.4051C48.455 26.2908 48.487 26.1766 48.52 26.059C48.7387 25.2585 48.883 24.4603 48.9941 23.6383C48.6693 23.6024 48.3445 23.5664 48.0098 23.5294C47.984 23.6242 47.9583 23.719 47.9317 23.8167C47.6888 24.7095 47.4458 25.6023 47.2027 26.4951C47.0778 26.9541 46.9528 27.4131 46.828 27.8722C46.7075 28.315 46.587 28.7579 46.4663 29.2007C46.4203 29.3698 46.3743 29.5389 46.3283 29.708C46.264 29.9445 46.1996 30.1811 46.1351 30.4176C46.0984 30.5523 46.0618 30.6871 46.024 30.8259C45.9624 31.046 45.8952 31.2647 45.8226 31.4815C44.2347 31.4815 42.6467 31.4815 41.0107 31.4815C41.1337 30.6236 41.1337 30.6236 41.2286 30.2757C41.2607 30.1568 41.2607 30.1568 41.2934 30.0355C41.3167 29.951 41.34 29.8666 41.364 29.7796C41.3888 29.6882 41.4136 29.5968 41.4391 29.5027C41.5214 29.1998 41.6044 28.8971 41.6874 28.5943C41.746 28.3792 41.8046 28.164 41.8631 27.9488C42.0199 27.3729 42.1773 26.7971 42.3348 26.2214C42.4647 25.7464 42.5943 25.2713 42.7239 24.7962C43.0464 23.614 43.3695 22.432 43.6929 21.2501C43.8883 20.5362 44.0834 19.8223 44.2783 19.1084C44.5002 18.2959 44.7224 17.4835 44.9451 16.6712C45.0242 16.3827 45.1032 16.0942 45.182 15.8056C45.2894 15.413 45.3972 15.0205 45.5052 14.628C45.5363 14.514 45.5673 14.4001 45.5994 14.2826C45.6275 14.1808 45.6556 14.0789 45.6846 13.974C45.7089 13.8858 45.7331 13.7976 45.758 13.7067C45.8893 13.3021 46.1177 13.3853 46.5081 13.3836ZM49.869 16.6667C49.5506 17.4473 49.3448 18.2472 49.1376 19.0632C49.1026 19.1995 49.0676 19.3359 49.0315 19.4764C48.9457 19.8106 48.8603 20.1449 48.7754 20.4793C49.4138 20.5145 49.4138 20.5145 49.9783 20.2614C50.5806 19.2866 50.9876 18.0319 50.8532 16.8845C50.4776 16.6351 50.308 16.6472 49.869 16.6667Z" fill="#6E6E6E"/>
<path d="M158.031 13.8719C158.728 14.4554 159.061 15.0081 159.231 15.9042C159.304 16.7935 159.156 17.6033 158.944 18.4641C158.911 18.5995 158.879 18.7349 158.845 18.8744C158.491 20.3265 158.094 21.7679 157.7 23.2094C157.668 23.3269 157.636 23.4443 157.603 23.5653C157.269 24.7856 156.922 25.9994 156.524 27.2004C156.477 27.3405 156.477 27.3405 156.43 27.4834C155.829 29.2568 154.655 30.5121 152.977 31.3453C151.165 32.1121 149.124 32.1574 147.281 31.5023C146.462 31.1521 145.954 30.5155 145.622 29.7045C145.231 28.6652 145.482 27.5654 145.738 26.5251C145.771 26.3896 145.803 26.2542 145.837 26.1147C146.191 24.6627 146.588 23.2212 146.982 21.7797C147.014 21.6623 147.046 21.5448 147.079 21.4239C147.413 20.2033 147.76 18.9895 148.159 17.7883C148.19 17.6949 148.221 17.6014 148.252 17.5051C148.804 15.881 149.828 14.6423 151.357 13.8344C153.303 12.8791 156.18 12.509 158.031 13.8719ZM153.592 16.3933C153.243 16.7508 153.137 17.0845 152.996 17.5552C152.969 17.642 152.941 17.7288 152.913 17.8182C152.633 18.7168 152.382 19.6236 152.138 20.5325C152.091 20.7071 152.043 20.8816 151.996 21.0561C151.898 21.4179 151.8 21.7797 151.703 22.1416C151.579 22.6015 151.455 23.0611 151.33 23.5207C151.233 23.8796 151.136 24.2386 151.039 24.5976C150.993 24.767 150.947 24.9364 150.902 25.1058C150.759 25.6327 150.619 26.1602 150.482 26.6885C150.447 26.8236 150.411 26.9587 150.375 27.0979C150.344 27.223 150.313 27.3481 150.28 27.477C150.239 27.6399 150.239 27.6399 150.198 27.8061C150.151 28.1206 150.181 28.344 150.263 28.6492C150.509 28.7439 150.509 28.7439 150.81 28.7582C151.355 28.435 151.509 28.0255 151.682 27.445C151.71 27.3585 151.737 27.2721 151.765 27.1829C151.85 26.9099 151.932 26.6361 152.013 26.3617C152.038 26.2768 152.063 26.192 152.089 26.1046C152.266 25.4977 152.433 24.8883 152.599 24.2783C152.652 24.0859 152.705 23.8935 152.758 23.7011C152.867 23.3021 152.976 22.903 153.084 22.5038C153.223 21.9947 153.363 21.486 153.503 20.9773C153.612 20.5818 153.72 20.1861 153.827 19.7903C153.878 19.6026 153.93 19.415 153.982 19.2275C154.372 17.8581 154.372 17.8581 154.528 16.4488C154.456 16.3769 154.384 16.305 154.309 16.2309C153.881 16.1944 153.881 16.1944 153.592 16.3933Z" fill="#6E6E6E"/>
<path d="M114.995 13.3856C115.117 13.3858 115.24 13.3861 115.365 13.3863C115.503 13.3863 115.641 13.3863 115.783 13.3863C115.935 13.3869 116.087 13.3875 116.238 13.3881C116.393 13.3883 116.547 13.3884 116.701 13.3885C117.108 13.3889 117.515 13.39 117.922 13.3912C118.337 13.3923 118.752 13.3928 119.167 13.3934C119.981 13.3945 120.796 13.3964 121.61 13.3987C121.24 16.8893 120.802 20.372 120.368 23.8552C120.287 24.5113 120.205 25.1674 120.124 25.8235C120.045 26.4628 119.966 27.1021 119.886 27.7413C119.839 28.1203 119.792 28.4994 119.745 28.8785C119.694 29.2965 119.642 29.7145 119.589 30.1325C119.574 30.2573 119.559 30.3821 119.543 30.5108C119.529 30.6235 119.514 30.7362 119.5 30.8524C119.481 31 119.481 31 119.463 31.1506C119.423 31.3725 119.423 31.3725 119.314 31.4815C119.163 31.4916 119.011 31.4943 118.86 31.4938C118.763 31.4938 118.667 31.4938 118.568 31.4938C118.463 31.4933 118.358 31.4927 118.25 31.4921C118.144 31.492 118.037 31.4918 117.927 31.4916C117.585 31.491 117.243 31.4897 116.901 31.4883C116.67 31.4877 116.438 31.4872 116.207 31.4868C115.639 31.4856 115.07 31.4838 114.502 31.4815C114.556 30.7125 114.658 29.9777 114.837 29.2279C114.857 29.1398 114.877 29.0517 114.898 28.9609C114.948 28.7479 114.998 28.5352 115.049 28.3224C114.543 28.3584 114.038 28.3943 113.518 28.4314C113.157 29.4379 112.796 30.4444 112.424 31.4815C110.764 31.4815 109.104 31.4815 107.393 31.4815C107.762 30.3784 107.762 30.3784 107.925 29.9745C107.962 29.8825 107.998 29.7906 108.036 29.6958C108.095 29.5502 108.095 29.5502 108.155 29.4015C108.218 29.2442 108.218 29.2442 108.283 29.0837C108.421 28.7391 108.56 28.3946 108.699 28.0501C108.797 27.8055 108.896 27.5609 108.994 27.3163C109.738 25.4701 110.491 23.6276 111.248 21.7867C111.765 20.5276 112.279 19.2671 112.789 18.0049C112.847 17.8599 112.906 17.715 112.965 17.57C113.222 16.9324 113.48 16.2948 113.737 15.6569C113.867 15.3341 113.997 15.0115 114.127 14.6889C114.198 14.5114 114.198 14.5114 114.271 14.3304C114.336 14.1694 114.336 14.1694 114.403 14.0053C114.44 13.9113 114.478 13.8173 114.517 13.7205C114.658 13.4017 114.658 13.4017 114.995 13.3856ZM116.908 18.4096C117.017 18.6274 117.017 18.6274 117.017 18.6274L116.908 18.4096ZM116.798 18.6274C115.753 21.2095 115.753 21.2095 114.734 23.8017C114.698 23.8932 114.663 23.9846 114.626 24.0788C114.444 24.5531 114.444 24.5531 114.392 25.0545C114.862 25.0545 115.331 25.0545 115.814 25.0545C116.07 23.7385 116.319 22.4213 116.562 21.1032C116.592 20.9419 116.622 20.7806 116.652 20.6194C116.695 20.3901 116.737 20.1607 116.78 19.9312C116.804 19.798 116.829 19.6649 116.854 19.5276C116.901 19.2199 116.919 18.9377 116.908 18.6274C116.872 18.6274 116.836 18.6274 116.798 18.6274Z" fill="#6E6E6E"/>
<path d="M74.6941 13.9434C75.323 14.4915 75.6769 15.0757 75.7877 15.9041C75.8827 17.731 75.214 19.6246 74.6941 21.3508C73.1062 21.3508 71.5182 21.3508 69.8822 21.3508C70.1277 20.128 70.1277 20.128 70.2859 19.5385C70.3192 19.4127 70.3525 19.287 70.3869 19.1574C70.4563 18.8981 70.5258 18.6389 70.5954 18.3796C70.9487 17.3563 70.9487 17.3563 70.8664 16.3399C70.5614 16.2942 70.5614 16.2942 70.2103 16.3399C69.7524 16.7161 69.565 17.0476 69.3919 17.6076C69.3696 17.6783 69.3474 17.7491 69.3246 17.822C69.2529 18.0535 69.1843 18.2858 69.1166 18.5185C69.0937 18.5969 69.0708 18.6752 69.0472 18.7559C68.8724 19.3577 68.706 19.9617 68.5408 20.5661C68.4879 20.7587 68.435 20.9514 68.3821 21.144C68.2722 21.5445 68.1627 21.9451 68.0535 22.3458C67.9141 22.8565 67.7734 23.3668 67.6324 23.877C67.5231 24.2734 67.4147 24.6701 67.3065 25.0669C67.255 25.2551 67.2032 25.4432 67.1511 25.6312C66.7328 27.0628 66.7328 27.0628 66.6013 28.5403C66.7215 28.6827 66.7215 28.6827 67.0183 28.6833C67.3658 28.6797 67.3658 28.6797 67.5873 28.4846C67.871 28.1301 67.9932 27.7552 68.1255 27.3284C68.1531 27.2433 68.1806 27.1581 68.2089 27.0704C68.4377 26.3523 68.6426 25.6274 68.8366 24.8993C68.9965 24.3026 68.9965 24.3026 69.1166 24.183C69.2644 24.1729 69.4126 24.1702 69.5607 24.1706C69.6549 24.1707 69.749 24.1707 69.846 24.1707C69.9483 24.1712 70.0506 24.1718 70.156 24.1724C70.2602 24.1725 70.3644 24.1727 70.4718 24.1728C70.8061 24.1735 71.1404 24.1748 71.4747 24.1762C71.7008 24.1768 71.9269 24.1772 72.1529 24.1777C72.7083 24.1789 73.2638 24.1808 73.8192 24.183C73.743 25.0452 73.5306 25.8006 73.2519 26.6204C73.2109 26.7462 73.17 26.872 73.1278 27.0016C72.4648 28.9748 71.4521 30.3173 69.5541 31.2636C67.6515 32.0581 65.4198 32.2417 63.4713 31.4781C62.7386 31.1138 62.1883 30.5723 61.8509 29.8271C61.4683 27.2442 62.5076 24.5321 63.1973 22.0625C63.2799 21.7656 63.3613 21.4683 63.4427 21.1711C65.035 15.3619 65.035 15.3619 67.3395 14.0183C69.401 12.8701 72.6862 12.4433 74.6941 13.9434Z" fill="#6E6E6E"/>
<path d="M96.4571 13.3987C97.9367 13.3987 99.4164 13.3987 100.941 13.3987C100.881 14.0749 100.82 14.7511 100.76 15.4272C100.74 15.6568 100.719 15.8864 100.699 16.1159C100.669 16.4477 100.639 16.7795 100.61 17.1113C100.596 17.2629 100.596 17.2629 100.583 17.4175C100.521 18.1114 100.458 18.8052 100.394 19.4989C100.426 19.4262 100.457 19.3535 100.49 19.2786C101.118 17.8362 101.764 16.4032 102.431 14.9782C102.465 14.9054 102.499 14.8325 102.534 14.7574C102.631 14.5506 102.728 14.344 102.825 14.1374C102.881 14.0184 102.937 13.8994 102.994 13.7768C103.128 13.5076 103.128 13.5076 103.238 13.3987C103.561 13.389 103.882 13.3862 104.205 13.3881C104.351 13.3883 104.351 13.3883 104.499 13.3885C104.81 13.3891 105.121 13.3905 105.432 13.3919C105.642 13.3924 105.852 13.3929 106.062 13.3934C106.579 13.3946 107.095 13.3965 107.612 13.3987C107.55 13.7755 107.46 14.0608 107.266 14.3897C107.217 14.4754 107.167 14.5612 107.115 14.6495C107.033 14.7886 107.033 14.7886 106.949 14.9306C106.829 15.1364 106.709 15.3422 106.589 15.548C106.525 15.6581 106.46 15.7683 106.394 15.8818C106.071 16.4354 105.752 16.9915 105.434 17.5476C105.321 17.7439 105.209 17.9401 105.096 18.1362C104.581 19.0339 104.068 19.9327 103.56 20.8346C103.272 21.3459 102.98 21.8547 102.679 22.3593C102.521 22.6266 102.363 22.8946 102.205 23.1627C102.094 23.3514 101.98 23.5389 101.867 23.7264C101.328 24.6456 101.001 25.5611 100.722 26.5795C100.683 26.7203 100.683 26.7203 100.643 26.8638C100.407 27.712 100.178 28.5621 99.9488 29.4123C99.8623 29.7332 99.7753 30.054 99.6884 30.3747C99.662 30.4735 99.6355 30.5723 99.6083 30.6742C99.5838 30.7645 99.5593 30.8548 99.5341 30.9479C99.5126 31.0275 99.4912 31.1072 99.4691 31.1892C99.4098 31.3726 99.4098 31.3726 99.3005 31.4815C98.9691 31.4912 98.6403 31.494 98.309 31.4921C98.2096 31.492 98.1102 31.4918 98.0078 31.4917C97.6891 31.4911 97.3704 31.4897 97.0517 31.4883C96.8362 31.4878 96.6207 31.4873 96.4052 31.4868C95.8757 31.4856 95.3462 31.4837 94.8167 31.4815C94.837 31.406 94.8573 31.3306 94.8782 31.2528C95.0697 30.5412 95.2612 29.8296 95.4526 29.118C95.5511 28.7521 95.6495 28.3863 95.748 28.0204C95.8612 27.5997 95.9744 27.179 96.0876 26.7583C96.1229 26.6271 96.1582 26.4959 96.1946 26.3607C96.2274 26.2386 96.2602 26.1165 96.2941 25.9907C96.323 25.8833 96.3519 25.7759 96.3816 25.6653C96.4065 25.5715 96.4314 25.4778 96.4571 25.3813C96.4784 25.3139 96.4998 25.2465 96.5218 25.1771C96.5897 24.8249 96.5753 24.4745 96.5688 24.1176C96.5678 24.0346 96.5667 23.9516 96.5656 23.8661C96.562 23.591 96.5576 23.316 96.5532 23.0409C96.5505 22.8475 96.5479 22.6542 96.5454 22.4608C96.5385 21.9496 96.531 21.4384 96.5233 20.9273C96.5112 20.1186 96.5 19.3099 96.4889 18.5012C96.4862 18.3055 96.4835 18.1098 96.4807 17.914C96.4597 16.4087 96.4514 14.9042 96.4571 13.3987Z" fill="#6E6E6E"/>
<path d="M137.577 13.3987C141.006 13.3987 144.434 13.3987 147.967 13.3987C147.896 13.9594 147.833 14.4177 147.683 14.9471C147.649 15.0667 147.615 15.1863 147.581 15.3095C147.546 15.4316 147.511 15.5537 147.474 15.6795C147.439 15.8045 147.404 15.9295 147.368 16.0584C147.107 16.9786 147.107 16.9786 146.982 17.1024C146.78 17.1196 146.577 17.1297 146.374 17.1369C146.251 17.1414 146.128 17.146 146.001 17.1507C145.871 17.155 145.742 17.1592 145.608 17.1637C145.478 17.1684 145.349 17.1731 145.215 17.1779C144.893 17.1895 144.57 17.2006 144.248 17.2113C144.203 17.379 144.203 17.379 144.157 17.5501C143.866 18.626 143.575 19.7019 143.284 20.7778C143.134 21.3303 142.985 21.8829 142.836 22.4354C142.235 24.6582 141.633 26.8807 141.022 29.1007C140.969 29.2932 140.916 29.4856 140.863 29.6781C140.791 29.9418 140.718 30.2055 140.646 30.4692C140.624 30.5471 140.603 30.625 140.581 30.7053C140.433 31.2386 140.433 31.2386 140.311 31.4815C138.723 31.4815 137.135 31.4815 135.499 31.4815C135.745 30.256 135.745 30.256 135.857 29.8484C135.895 29.7088 135.895 29.7088 135.933 29.5664C135.96 29.4684 135.987 29.3705 136.015 29.2696C136.044 29.1632 136.073 29.0567 136.103 28.9471C136.198 28.5981 136.294 28.2492 136.39 27.9003C136.457 27.655 136.524 27.4097 136.591 27.1644C136.767 26.5197 136.944 25.875 137.121 25.2305C137.264 24.7088 137.406 24.1871 137.549 23.6654C138.137 21.5129 138.726 19.3604 139.327 17.2113C138.425 17.1754 137.522 17.1394 136.593 17.1024C136.918 15.8802 137.242 14.6579 137.577 13.3987Z" fill="#6E6E6E"/>
<path d="M85.8588 13.3851C85.9546 13.3855 86.0503 13.3859 86.1489 13.3863C86.2994 13.3863 86.2994 13.3863 86.4528 13.3863C86.786 13.3863 87.1191 13.3872 87.4523 13.388C87.6826 13.3883 87.9129 13.3884 88.1433 13.3885C88.7508 13.3889 89.3583 13.39 89.9658 13.3912C90.5852 13.3923 91.2046 13.3928 91.824 13.3934C93.0403 13.3945 94.2566 13.3964 95.4729 13.3987C95.4566 13.5546 95.4401 13.7105 95.4233 13.8663C95.4142 13.9531 95.405 14.0399 95.3955 14.1293C95.354 14.4529 95.2759 14.7573 95.1854 15.0705C95.1391 15.2327 95.1391 15.2327 95.092 15.3982C95.053 15.5315 95.014 15.6647 94.9739 15.802C94.8498 16.2311 94.7258 16.6603 94.598 17.1024C93.6596 17.1024 92.7213 17.1024 91.7546 17.1024C91.6704 17.4712 91.6704 17.4712 91.5846 17.8475C91.2709 19.1901 90.9003 20.5179 90.5366 21.8478C90.4615 22.1233 90.3864 22.3988 90.3113 22.6743C90.155 23.2475 89.9984 23.8206 89.8417 24.3936C89.6605 25.0562 89.4798 25.7189 89.2993 26.3817C89.1249 27.0221 88.9502 27.6624 88.7752 28.3026C88.701 28.5743 88.6269 28.8461 88.5529 29.1178C88.4502 29.4952 88.3469 29.8724 88.2436 30.2496C88.213 30.3624 88.1823 30.4752 88.1508 30.5915C88.1227 30.6934 88.0947 30.7954 88.0658 30.9005C88.0415 30.9895 88.0171 31.0786 87.9921 31.1704C87.9269 31.3725 87.9269 31.3725 87.8175 31.4815C87.6664 31.4916 87.5148 31.4943 87.3634 31.4938C87.2671 31.4938 87.1707 31.4938 87.0715 31.4938C86.9668 31.4933 86.8621 31.4927 86.7542 31.4921C86.6476 31.492 86.5409 31.4918 86.4311 31.4916C86.089 31.491 85.7468 31.4897 85.4047 31.4883C85.1734 31.4877 84.9421 31.4872 84.7108 31.4868C84.1424 31.4856 83.574 31.4838 83.0056 31.4815C83.3063 30.2663 83.6225 29.0559 83.9497 27.8476C83.998 27.6689 84.0462 27.4903 84.0945 27.3117C84.1953 26.9385 84.2962 26.5654 84.3972 26.1923C84.5231 25.7272 84.6487 25.2619 84.7743 24.7967C85.2708 22.9573 85.7708 21.1188 86.281 19.2831C86.3293 19.1093 86.3776 18.9355 86.4257 18.7616C86.492 18.5228 86.5585 18.284 86.6252 18.0452C86.6817 17.8424 86.6817 17.8424 86.7393 17.6354C86.8333 17.3203 86.8333 17.3203 86.9426 17.1024C86.0404 17.1024 85.1382 17.1024 84.2086 17.1024C84.455 15.7527 84.455 15.7527 84.5884 15.2667C84.6168 15.1629 84.6452 15.0592 84.6745 14.9522C84.7179 14.7966 84.7179 14.7966 84.7622 14.6378C84.7916 14.5298 84.821 14.4218 84.8513 14.3106C85.1065 13.3864 85.1065 13.3864 85.8588 13.3851Z" fill="#6E6E6E"/>
<path d="M34.0115 13.3987C37.44 13.3987 40.8685 13.3987 44.4009 13.3987C44.3305 13.9594 44.2671 14.4177 44.1172 14.9471C44.0835 15.0667 44.0499 15.1863 44.0151 15.3095C43.98 15.4316 43.9449 15.5537 43.9088 15.6795C43.8737 15.8045 43.8386 15.9295 43.8024 16.0584C43.541 16.9786 43.541 16.9786 43.4166 17.1024C43.2141 17.1196 43.011 17.1297 42.8079 17.1369C42.6849 17.1414 42.5619 17.146 42.4352 17.1507C42.3057 17.155 42.1762 17.1592 42.0428 17.1637C41.9129 17.1684 41.783 17.1731 41.6491 17.1779C41.327 17.1895 41.0048 17.2006 40.6826 17.2113C40.6373 17.379 40.6373 17.379 40.5911 17.5501C40.3002 18.626 40.0093 19.7019 39.7183 20.7778C39.5688 21.3303 39.4194 21.8829 39.2701 22.4354C38.6693 24.6582 38.0675 26.8807 37.4565 29.1007C37.4035 29.2932 37.3507 29.4856 37.2979 29.6781C37.2255 29.9418 37.1528 30.2055 37.08 30.4692C37.0586 30.5471 37.0373 30.625 37.0153 30.7053C36.8675 31.2386 36.8675 31.2386 36.7456 31.4815C35.1576 31.4815 33.5697 31.4815 31.9337 31.4815C32.0753 30.7758 32.2235 30.09 32.4143 29.3986C32.4396 29.3058 32.4649 29.213 32.4909 29.1173C32.574 28.813 32.6575 28.5088 32.7411 28.2046C32.8 27.989 32.8589 27.7734 32.9177 27.5579C33.0728 26.9904 33.2282 26.4231 33.3838 25.8558C33.5389 25.2897 33.6936 24.7235 33.8483 24.1573C34.4816 21.8407 35.1187 19.5253 35.7613 17.2113C34.8591 17.1754 33.9568 17.1394 33.0273 17.1024C33.3521 15.8802 33.6769 14.6579 34.0115 13.3987Z" fill="#6E6E6E"/>
<path d="M78.8499 13.3987C80.4378 13.3987 82.0257 13.3987 83.6618 13.3987C83.5388 14.3791 83.5388 14.3791 83.439 14.7411C83.4165 14.8237 83.394 14.9064 83.3709 14.9915C83.3464 15.0791 83.3219 15.1668 83.2967 15.257C83.2707 15.3522 83.2447 15.4473 83.2178 15.5452C83.1316 15.8598 83.0445 16.1741 82.9573 16.4884C82.8959 16.7116 82.8346 16.9349 82.7733 17.1582C82.6431 17.632 82.5126 18.1056 82.3818 18.5792C82.1784 19.3153 81.9759 20.0516 81.7735 20.7879C81.5717 21.5216 81.37 22.2553 81.1679 22.9889C80.6217 24.9723 80.0797 26.9568 79.5402 28.942C79.4676 29.209 79.395 29.4761 79.3223 29.7432C79.1647 30.3226 79.0073 30.902 78.8499 31.4815C77.2258 31.4815 75.6018 31.4815 73.9286 31.4815C74.834 28.0543 75.7601 24.6333 76.6968 21.2146C76.7252 21.111 76.7536 21.0073 76.7828 20.9005C77.4681 18.3989 78.1563 15.8981 78.8499 13.3987Z" fill="#6E6E6E"/>
<path d="M58.6179 13.3987C60.2059 13.3987 61.7938 13.3987 63.4299 13.3987C63.3564 13.9845 63.2804 14.4762 63.1285 15.035C63.1092 15.1066 63.0899 15.1781 63.07 15.2519C63.0061 15.4885 62.9414 15.7248 62.8767 15.9611C62.8306 16.1309 62.7846 16.3006 62.7387 16.4703C62.615 16.9268 62.4905 17.3832 62.3659 17.8395C62.236 18.3156 62.1068 18.792 61.9774 19.2683C61.6862 20.3403 61.3938 21.4121 61.1012 22.4838C61.0012 22.8499 60.9014 23.2161 60.8015 23.5822C60.5092 24.6541 60.2166 25.7258 59.9235 26.7974C59.9028 26.873 59.8821 26.9487 59.8608 27.0266C59.7234 27.529 59.5857 28.0312 59.448 28.5335C59.4145 28.6559 59.381 28.7783 59.3464 28.9045C59.11 29.7655 58.8642 30.623 58.6179 31.4815C57.03 31.4815 55.4421 31.4815 53.806 31.4815C53.8816 30.9548 53.9646 30.4927 54.1022 29.9855C54.121 29.9158 54.1397 29.8462 54.1591 29.7744C54.2215 29.543 54.2846 29.3119 54.3477 29.0807C54.3928 28.9141 54.4379 28.7475 54.483 28.5809C54.605 28.13 54.7276 27.6793 54.8504 27.2287C54.9528 26.8523 55.0549 26.4759 55.157 26.0994C56.0319 22.873 56.9141 19.6485 57.7987 16.4247C57.8225 16.3381 57.8462 16.2515 57.8707 16.1622C57.982 15.7567 58.0933 15.3511 58.2047 14.9456C58.2437 14.8034 58.2828 14.6612 58.3218 14.519C58.3554 14.3966 58.3891 14.2742 58.4237 14.1481C58.4911 13.899 58.5551 13.649 58.6179 13.3987Z" fill="#6E6E6E"/>
<path d="M10.0613 16.7756C10.1848 17.1447 10.1602 17.2053 10.0292 17.5543C9.9802 17.6898 9.9802 17.6898 9.93017 17.8281C9.89449 17.9256 9.85881 18.0232 9.82204 18.1236C8.33226 22.4081 8.64422 26.9585 10.5823 31.0502C12.5911 35.1531 16.096 38.1464 20.3905 39.6675C24.7915 41.1324 29.4308 40.7101 33.5741 38.6983C35.0253 37.9705 36.3125 37.036 37.5111 35.9477C37.6146 35.8538 37.718 35.7598 37.8246 35.663C38.4795 35.0394 39.0131 34.3809 39.5217 33.6356C39.646 33.4568 39.7808 33.2854 39.917 33.1155C40.0253 33.1155 40.1336 33.1155 40.2451 33.1155C39.7771 34.7071 38.4033 36.0634 37.2924 37.2549C37.2322 37.3208 37.172 37.3866 37.1099 37.4545C34.4163 40.2833 30.1526 42.0593 26.269 42.1818C24.61 42.2232 22.9433 42.2422 21.3255 41.8301C21.2485 41.8108 21.1715 41.7915 21.0921 41.7717C18.064 40.9929 15.4131 39.5712 13.1698 37.4044C13.0326 37.2727 12.8928 37.1438 12.7526 37.0153C10.2994 34.708 8.86955 31.4579 8.20212 28.2135C8.16173 28.0191 8.16173 28.0191 8.12052 27.8208C7.47412 23.962 8.31359 20.2152 10.0613 16.7756Z" fill="#6E6E6E"/>
<path d="M18.1541 12.2004C18.3896 12.4861 18.526 12.7063 18.5915 13.0719C18.5133 13.1369 18.435 13.2019 18.3544 13.2689C15.6353 15.5981 14.0754 18.8982 13.7796 22.4401C13.5177 26.0372 14.7786 29.4672 17.084 32.2049C19.4657 34.9234 22.5325 36.1864 26.0281 36.8192C26.0281 36.8911 26.0281 36.963 26.0281 37.037C23.7818 37.1555 21.5613 36.5273 19.5758 35.512C19.4509 35.4482 19.326 35.3845 19.1973 35.3188C18.2336 34.8081 17.4232 34.1782 16.623 33.4423C16.4657 33.299 16.4657 33.299 16.3052 33.1529C13.7277 30.701 12.3974 27.2908 12.2349 23.7788C12.1516 19.996 13.5898 16.6088 16.1488 13.8468C16.7672 13.2109 17.4039 12.6754 18.1541 12.2004Z" fill="#F18637"/>
<path d="M28.267 20.7231C29.0026 21.2339 29.4259 21.8972 29.637 22.7669C29.7697 23.9532 29.595 24.8014 28.8578 25.7353C28.1943 26.4489 27.3478 26.7599 26.3903 26.8246C25.3714 26.8036 24.5608 26.4181 23.8408 25.708C23.1884 24.9013 22.9732 24.0081 23.0753 22.9847C23.3054 21.9441 23.8594 21.2126 24.7157 20.5882C25.7813 19.9228 27.2297 20.1281 28.267 20.7231Z" fill="#6E6E6E"/>
<path d="M17.3885 9.69498C17.8163 10.1108 18.2143 10.5451 18.6052 10.9954C18.6674 11.0669 18.7297 11.1384 18.7938 11.2122C19.2472 11.7372 19.679 12.2758 20.104 12.8237C20.5393 13.3812 21.0008 13.9133 21.4678 14.4445C21.8959 14.9321 22.3111 15.4284 22.7204 15.9318C23.0009 16.2734 23.2872 16.6097 23.5743 16.9458C24.3452 17.8494 25.0814 18.7787 25.8094 19.7168C25.5905 19.8292 25.3737 19.9339 25.1447 20.0244C24.3753 20.329 23.7569 20.7681 23.2941 21.4597C23.2219 21.4597 23.1497 21.4597 23.0754 21.4597C22.6681 20.6509 22.2611 19.842 21.8544 19.0329C21.6654 18.657 21.4763 18.281 21.287 17.9052C20.5055 16.3534 19.7287 14.8002 18.981 13.2318C18.5876 12.4069 18.1779 11.5916 17.7574 10.78C17.7086 10.6843 17.6597 10.5885 17.6094 10.4898C17.5667 10.4071 17.5239 10.3244 17.4799 10.2391C17.3885 10.0218 17.3885 10.0218 17.3885 9.69498Z" fill="#6E6E6E"/>
<path d="M26.1375 9.80393C25.7555 10.0576 25.4248 10.0942 24.9824 10.158C23.1231 10.4624 21.5373 11.1737 19.9039 12.0915C19.7171 11.952 19.5349 11.8064 19.3571 11.6558C19.3571 11.5839 19.3571 11.512 19.3571 11.4379C21.4716 10.3878 23.7402 9.65606 26.1375 9.80393Z" fill="#F18637"/>
</g>
<defs>
<clipPath id="clip0_132_62">
<rect width="159.231" height="50" fill="white"/>
</clipPath>
</defs>
</svg>
