<svg width="127" height="40" viewBox="0 0 127 40" fill="none" xmlns="http://www.w3.org/2000/svg">
<g clip-path="url(#clip0_208_504)">
<path d="M31.0498 0.142822C33.6349 0.189965 36.22 0.237108 38.8835 0.285679C40.013 3.19894 40.013 3.19894 40.4235 4.48211C40.7359 5.44241 41.0566 6.39868 41.3988 7.34874C41.431 7.43807 41.4631 7.52741 41.4962 7.61945C41.6532 8.05493 41.8113 8.48996 41.9707 8.92456C42.2242 9.62456 42.4621 10.3055 42.61 11.0362C42.6493 11.2128 42.6886 11.3894 42.7291 11.5714C42.8231 11.6185 42.9171 11.6657 43.014 11.7143C43.1068 11.9572 43.1068 11.9572 43.1948 12.289C43.3846 12.9616 43.5984 13.6218 43.8257 14.2823C43.8601 14.3825 43.8945 14.4827 43.93 14.5859C44.0369 14.8966 44.1441 15.2072 44.2513 15.5178C44.3249 15.7315 44.3984 15.9453 44.4719 16.159C44.6503 16.6775 44.8291 17.1959 45.008 17.7142C45.4158 16.7052 45.8072 15.691 46.183 14.6696C46.2348 14.5321 46.2866 14.3947 46.3399 14.253C46.3888 14.12 46.4376 13.9869 46.4879 13.8499C46.532 13.731 46.5762 13.6122 46.6216 13.4897C46.7232 13.1209 46.7346 12.8093 46.7172 12.4285C46.8112 12.3814 46.9052 12.3343 47.002 12.2857C47.12 12.0078 47.2243 11.7241 47.3225 11.4386C47.353 11.351 47.3835 11.2634 47.4149 11.1731C47.4809 10.9832 47.5465 10.7931 47.6116 10.6029C47.7856 10.095 47.9629 9.58829 48.1398 9.08144C48.1937 8.92656 48.1937 8.92656 48.2487 8.76856C48.5889 7.79328 48.9463 6.82474 49.3076 5.85711C49.8187 4.48658 50.3088 3.11035 50.7749 1.72374C50.818 1.59686 50.8611 1.46998 50.9055 1.33925C50.9427 1.22839 50.9799 1.11753 51.0182 1.00331C51.1325 0.714251 51.1325 0.714251 51.4174 0.285679C53.8145 0.285679 56.2116 0.285679 58.6813 0.285679C58.6813 8.91282 58.6813 17.54 58.6813 26.4285C56.7542 26.4285 54.8272 26.4285 52.8417 26.4285C52.7947 21.5257 52.7477 16.6228 52.6992 11.5714C51.9942 13.6457 51.2892 15.72 50.5628 17.8571C49.6548 20.4464 49.6548 20.4464 49.2442 21.6071C48.6771 23.2109 48.1248 24.8198 47.5717 26.4285C45.9737 26.4285 44.3756 26.4285 42.7291 26.4285C42.5881 26.0985 42.4471 25.7685 42.3018 25.4285C42.2078 25.4285 42.1138 25.4285 42.017 25.4285C42.0116 25.3424 42.0063 25.2562 42.0008 25.1674C41.9447 24.4837 41.8795 24.1133 41.4472 23.5714C41.3952 23.2387 41.3485 22.9053 41.3048 22.5714C41.2016 22.23 41.0863 21.8953 40.966 21.5597C40.8775 21.2857 40.8775 21.2857 40.8775 21C40.7835 20.9528 40.6895 20.9057 40.5926 20.8571C40.6397 20.7157 40.6867 20.5742 40.7351 20.4285C40.6411 20.3814 40.5471 20.3342 40.4502 20.2857C40.3134 19.9354 40.1927 19.5898 40.0786 19.2321C40.0431 19.1239 40.0075 19.0157 39.971 18.9043C39.8567 18.5555 39.7439 18.2063 39.6312 17.8571C39.484 17.4046 39.3362 16.9523 39.1884 16.5C39.152 16.388 39.1156 16.2761 39.0781 16.1607C38.7839 15.2602 38.4712 14.3668 38.145 13.4774C37.9944 13.0596 37.8865 12.7338 37.8865 12.2857C37.7455 12.215 37.7455 12.215 37.6016 12.1428C37.5546 11.9071 37.5076 11.6714 37.4592 11.4285C37.4122 16.3785 37.3652 21.3285 37.3167 26.4285C35.3897 26.4285 33.4626 26.4285 31.4771 26.4285C31.4743 25.6569 31.4715 24.8853 31.4685 24.0902C31.459 21.5454 31.448 19.0006 31.4361 16.4558C31.429 14.9124 31.4224 13.369 31.417 11.8255C31.4123 10.4805 31.4066 9.13545 31.3998 7.79043C31.3962 7.07804 31.3931 6.36565 31.3912 5.65325C31.3893 4.98302 31.3862 4.3128 31.382 3.64258C31.3807 3.39633 31.3799 3.15008 31.3796 2.90383C31.3792 2.56807 31.377 2.23236 31.3743 1.89662C31.3735 1.70857 31.3728 1.52052 31.3719 1.32678C31.3371 0.888246 31.2745 0.654454 31.0498 0.285679C31.0498 0.238537 31.0498 0.191394 31.0498 0.142822Z" fill="#FAF8F6"/>
<path d="M108.354 -0.0445301C108.454 -0.0449516 108.553 -0.0453732 108.656 -0.0458075C110.165 -0.0472617 111.514 0.0652976 112.947 0.571541C113.072 0.607267 113.198 0.642992 113.327 0.6798C114.097 0.904623 114.709 1.26266 115.368 1.7144C115.508 1.80408 115.647 1.89376 115.791 1.98616C118.138 3.53546 119.815 5.54515 120.923 8.14297C120.923 8.2844 120.923 8.42583 120.923 8.57154C120.021 8.56559 119.118 8.55527 118.216 8.5419C117.909 8.53786 117.602 8.53483 117.295 8.53283C116.854 8.52977 116.413 8.52311 115.972 8.51574C115.766 8.51547 115.766 8.51547 115.556 8.51521C114.599 8.4942 114.599 8.4942 114.152 8.15117C114.049 8.00568 114.049 8.00568 113.944 7.85726C112.22 6.24728 110.358 5.52561 107.997 5.54978C107.384 5.57865 106.837 5.67355 106.253 5.85726C106.141 5.89224 106.028 5.92723 105.913 5.96328C104.033 6.63214 102.653 7.9566 101.722 9.70547C101.613 9.94447 101.509 10.1856 101.41 10.4287C101.342 10.5939 101.342 10.5939 101.272 10.7624C100.654 12.5832 100.744 14.8179 101.484 16.5799C101.793 17.1946 102.125 17.7457 102.55 18.2858C102.63 18.3926 102.71 18.4994 102.792 18.6095C104.191 20.3429 106.042 21.0457 108.179 21.3344C109.164 21.3803 110.145 21.0863 111.095 20.8573C111.262 20.8238 111.262 20.8238 111.431 20.7897C111.508 20.7649 111.586 20.74 111.665 20.7144C111.712 20.6201 111.759 20.5258 111.808 20.4287C112.054 20.3138 112.054 20.3138 112.306 20.1965C113.193 19.771 113.969 19.1059 114.514 18.2858C114.786 18.2397 114.786 18.2397 115.121 18.2503C115.247 18.2532 115.372 18.2561 115.502 18.2591C115.637 18.2644 115.773 18.2697 115.913 18.2752C116.121 18.2809 116.121 18.2809 116.333 18.2867C116.777 18.2992 117.221 18.3148 117.665 18.3305C117.966 18.3395 118.266 18.3483 118.567 18.357C119.305 18.3786 120.043 18.4027 120.781 18.4287C120.691 18.6574 120.6 18.886 120.51 19.1146C120.459 19.2419 120.409 19.3692 120.357 19.5004C119.131 22.4983 116.446 24.6463 113.57 25.9555C110.17 27.288 106.426 27.2583 103.066 25.8215C100.802 24.7905 99.1566 23.1683 97.4222 21.4287C97.4222 21.3344 97.4222 21.2401 97.4222 21.143C97.3038 20.935 97.1845 20.7274 97.0603 20.5229C96.5604 19.698 96.1404 18.8686 95.802 17.9644C95.7681 17.8752 95.7342 17.7861 95.6993 17.6942C95.1905 16.2816 95.0879 14.9062 95.0899 13.4108C95.0901 13.2276 95.0903 13.0445 95.0906 12.8557C95.1133 11.0922 95.3699 9.54423 96.1781 7.95714C96.311 7.69291 96.311 7.69291 96.2827 7.28583C96.4216 7.13949 96.5648 6.99722 96.71 6.85726C96.8564 6.62461 96.9984 6.38912 97.1373 6.1519C99.0758 3.04842 102.18 1.02594 105.683 0.14297C105.767 0.117856 105.85 0.0927425 105.936 0.0668678C106.722 -0.0987853 107.553 -0.0415938 108.354 -0.0445301Z" fill="#FAF8F6"/>
<path d="M78.7639 0.142822C80.926 0.189965 83.0881 0.237108 85.3157 0.285679C85.0225 1.26591 84.7149 2.19876 84.3348 3.14282C84.2815 3.27669 84.2282 3.41057 84.1734 3.54849C84.0591 3.8356 83.9446 4.12261 83.8299 4.40952C83.523 5.17735 83.2183 5.94602 82.9138 6.71481C82.852 6.87093 82.7902 7.02705 82.7264 7.1879C82.1335 8.68846 81.559 10.1957 80.9893 11.7053C80.3036 13.5213 79.6102 15.3335 78.8964 17.1386C78.3715 18.4663 77.8534 19.7966 77.3401 21.1289C77.2784 21.289 77.2166 21.4492 77.153 21.6142C76.8436 22.4173 76.5345 23.2205 76.2261 24.024C76.1128 24.3181 75.9996 24.6121 75.8863 24.9062C75.8337 25.0436 75.7812 25.181 75.727 25.3226C75.6787 25.4477 75.6305 25.5728 75.5807 25.7017C75.5386 25.8115 75.4964 25.9213 75.4529 26.0345C75.3455 26.2857 75.3455 26.2857 75.2031 26.4285C74.8544 26.4412 74.5097 26.445 74.161 26.4425C74.0048 26.4422 74.0048 26.4422 73.8455 26.4419C73.5117 26.4411 73.1779 26.4393 72.8441 26.4375C72.6183 26.4368 72.3925 26.4361 72.1667 26.4355C71.6121 26.4339 71.0575 26.4315 70.5029 26.4285C69.9784 25.2781 69.5076 24.107 69.0383 22.9331C68.8996 22.5868 68.7599 22.2409 68.6201 21.8951C68.5318 21.6745 68.4435 21.4539 68.3553 21.2332C68.3135 21.1301 68.2717 21.027 68.2286 20.9207C68.0602 20.4967 67.9391 20.1751 67.9391 19.7143C67.8451 19.6671 67.7511 19.62 67.6543 19.5714C67.5512 19.2912 67.5512 19.2912 67.4552 18.9304C67.2508 18.2069 66.9939 17.5217 66.7085 16.827C66.6069 16.5762 66.5056 16.3253 66.4044 16.0743C66.3522 15.9451 66.3001 15.8159 66.2464 15.6827C65.9805 15.0181 65.7234 14.3501 65.4666 13.6819C65.4152 13.5481 65.3637 13.4143 65.3107 13.2765C65.1541 12.8689 64.9977 12.4612 64.8413 12.0535C64.6822 11.639 64.523 11.2246 64.3637 10.8102C64.2659 10.5558 64.1683 10.3013 64.0707 10.0469C64.026 9.93037 63.9812 9.81386 63.9351 9.69381C63.8916 9.58048 63.8481 9.46714 63.8033 9.35037C63.7063 9.1025 63.6069 8.85561 63.5056 8.60945C63.4273 8.4187 63.4273 8.4187 63.3473 8.22409C63.2754 8.0518 63.2754 8.0518 63.202 7.87603C63.0965 7.57139 63.0965 7.57139 63.0965 7.14282C63.0025 7.09568 62.9085 7.04854 62.8116 6.99997C62.6606 6.61428 62.5232 6.23203 62.3933 5.83925C62.3211 5.62448 62.2486 5.40982 62.1757 5.19528C62.1223 5.03804 62.1223 5.03804 62.0679 4.87762C61.962 4.58493 61.843 4.303 61.7162 4.01894C61.5298 3.57139 61.5298 3.57139 61.5298 3.14282C61.4358 3.09568 61.3418 3.04854 61.2449 2.99997C61.1336 2.72988 61.1336 2.72988 61.0313 2.39282C60.916 2.02239 60.7992 1.67045 60.6485 1.31247C60.5328 0.999965 60.5328 0.999965 60.5328 0.428537C60.3918 0.381394 60.2507 0.334251 60.1055 0.285679C62.2676 0.285679 64.4297 0.285679 66.6573 0.285679C66.9198 0.900088 67.1614 1.48085 67.3728 2.10878C67.4262 2.26615 67.4796 2.42352 67.5346 2.58566C67.5917 2.75479 67.6488 2.92392 67.7077 3.09818C68.3577 5.00765 69.0356 6.90617 69.7242 8.80197C70.9302 12.1263 70.9302 12.1263 70.9302 12.5714C71.0242 12.6185 71.1182 12.6657 71.215 12.7143C71.2684 12.9511 71.3144 13.1896 71.3575 13.4285C71.4615 13.7553 71.5705 14.0806 71.683 14.4045C71.7301 14.541 71.7301 14.541 71.7781 14.6801C71.8778 14.9684 71.9782 15.2565 72.0785 15.5446C72.1465 15.7409 72.2145 15.9373 72.2824 16.1336C72.4484 16.613 72.6149 17.0923 72.7818 17.5714C73.1743 16.7184 73.516 15.8606 73.8194 14.9721C73.8618 14.8496 73.9041 14.7271 73.9477 14.6009C74.038 14.3396 74.1281 14.0783 74.2179 13.8168C74.4558 13.1243 74.6955 12.4325 74.9349 11.7405C74.9826 11.6026 75.0302 11.4648 75.0793 11.3228C75.4803 10.1627 75.8875 9.00492 76.298 7.84818C76.3589 7.67618 76.4197 7.50418 76.4824 7.32697C76.7892 6.46016 77.0976 5.59398 77.4086 4.72867C77.5697 4.27973 77.73 3.83048 77.8901 3.38118C77.9674 3.16491 78.0451 2.9488 78.1233 2.73284C78.2316 2.43347 78.3385 2.13364 78.4451 1.83367C78.5067 1.66211 78.5683 1.49055 78.6318 1.31379C78.7969 0.82202 78.7969 0.82202 78.7639 0.142822Z" fill="#FAF8F6"/>
<path d="M19.9405 0.571502C20.0875 0.619933 20.2346 0.668365 20.3861 0.718265C22.6505 1.56808 24.7228 3.09339 26.2074 5.00007C26.3014 5.09436 26.3954 5.18865 26.4923 5.28579C26.6657 5.53885 26.8343 5.79526 26.9997 6.05365C27.088 6.19029 27.1763 6.32693 27.2673 6.46771C27.4603 6.80634 27.5429 7.05724 27.6317 7.42865C27.7257 7.47579 27.8197 7.52293 27.9166 7.5715C27.9166 7.71293 27.9166 7.85436 27.9166 8.00007C28.0106 8.04722 28.1046 8.09436 28.2014 8.14293C28.3346 8.49096 28.4505 8.83141 28.5575 9.18757C28.5889 9.29205 28.6204 9.39652 28.6528 9.50416C29.3518 11.8886 29.5475 14.7096 28.9136 17.1429C28.7726 17.2136 28.7726 17.2136 28.6287 17.2858C28.6287 17.3801 28.6287 17.4744 28.6287 17.5715C28.4561 17.5854 28.4561 17.5854 28.2799 17.5995C25.6943 17.8131 23.185 18.1281 20.6526 18.7144C20.5123 18.7458 20.3721 18.7773 20.2276 18.8097C16.8576 19.5712 13.666 20.7305 10.5295 22.1751C10.2552 22.2858 10.2552 22.2858 9.97033 22.2858C9.92333 22.3801 9.87633 22.4744 9.8279 22.5715C9.57009 22.7197 9.57009 22.7197 9.23704 22.8756C9.11733 22.9321 8.99762 22.9885 8.87429 23.0467C8.74833 23.105 8.62238 23.1632 8.49262 23.2233C8.36777 23.2821 8.24292 23.341 8.11429 23.4016C7.64394 23.6219 7.18734 23.8353 6.69443 24.0001C6.41414 23.7306 6.13553 23.4596 5.85765 23.1876C5.73895 23.0739 5.73895 23.0739 5.61786 22.9579C5.17834 22.5251 4.87824 22.18 4.70041 21.5715C5.11431 21.392 5.38351 21.2858 5.83985 21.2858C5.88685 21.1915 5.93385 21.0972 5.98228 21.0001C6.29933 20.9045 6.62097 20.8242 6.94368 20.7501C7.88712 20.5269 8.8175 20.273 9.74778 20.0001C10.6987 19.7235 11.6508 19.4618 12.6142 19.2322C12.7133 19.2083 12.8125 19.1843 12.9146 19.1597C13.3761 19.0525 13.7655 19.0001 14.2432 19.0001C14.2902 18.9058 14.3373 18.8115 14.3857 18.7144C14.6898 18.6747 14.9943 18.6369 15.2998 18.6092C15.6529 18.573 15.9953 18.5181 16.3441 18.4526C18.5754 18.0345 20.8142 17.7578 23.0677 17.4966C24.0201 17.3852 24.9712 17.2633 25.9225 17.1429C25.0765 17.0958 24.2305 17.0486 23.3588 17.0001C23.2164 16.7144 23.2164 16.7144 23.3271 16.3756C23.3816 16.2311 23.4361 16.0865 23.4923 15.9376C24.1322 13.9067 23.9022 11.9359 23.0739 10.0001C23.028 9.8894 22.9821 9.77872 22.9348 9.6647C22.7933 9.37927 22.7933 9.37927 22.3618 9.28579C22.3425 9.12889 22.3425 9.12889 22.3228 8.96882C22.0501 7.92168 20.966 7.12067 20.0829 6.5715C19.9889 6.5715 19.8949 6.5715 19.798 6.5715C19.7107 6.47703 19.7107 6.47703 19.6217 6.38065C18.5088 5.32632 16.547 5.2605 15.0978 5.28579C12.8657 5.44047 10.9323 6.40657 9.3739 8.00007C7.69533 9.99957 7.2083 12.3093 7.40658 14.8572C7.52681 15.5411 7.7217 16.1625 7.99077 16.8009C8.11874 17.1429 8.11874 17.1429 8.11874 17.5715C7.44476 17.633 6.77074 17.694 6.09668 17.7546C5.86763 17.7753 5.63859 17.796 5.40957 17.817C5.07937 17.8471 4.74913 17.8768 4.41888 17.9063C4.31737 17.9157 4.21585 17.9251 4.11126 17.9347C3.54605 17.9848 2.98886 18.0094 2.42152 18.0001C2.37452 17.9058 2.32751 17.8115 2.27909 17.7144C2.37309 17.7144 2.4671 17.7144 2.56395 17.7144C2.53476 17.6125 2.50556 17.5107 2.47549 17.4058C2.43711 17.2689 2.39874 17.1321 2.3592 16.9911C2.3022 16.7898 2.3022 16.7898 2.24404 16.5843C1.42729 13.2269 2.0473 9.3823 3.80688 6.42027C4.39768 5.51687 5.06492 4.61042 5.83985 3.85722C5.93385 3.85722 6.02786 3.85722 6.12471 3.85722C6.12471 3.76293 6.12471 3.66864 6.12471 3.5715C6.39246 3.33457 6.6592 3.11703 6.94368 2.90186C7.028 2.838 7.11232 2.77415 7.1992 2.70836C10.8367 -0.00219153 15.5928 -0.888491 19.9405 0.571502Z" fill="#FAF8F6"/>
<path d="M87.0254 0.285645C88.9995 0.285645 90.9736 0.285645 93.0075 0.285645C92.9605 8.91279 92.9135 17.5399 92.865 26.4285C90.938 26.4285 89.0109 26.4285 87.0254 26.4285C87.0254 17.8014 87.0254 9.17422 87.0254 0.285645Z" fill="#FAF8F6"/>
<path d="M20.0825 8.71424C20.6523 9.42475 20.6523 9.42475 20.6523 9.85709C20.921 9.84384 20.921 9.84384 21.1953 9.83031C21.7493 9.83129 21.7493 9.83129 22.0855 10.0357C22.219 10.2857 22.219 10.2857 22.1745 10.5982C22.1422 10.6836 22.1098 10.7691 22.0766 10.8571C21.8885 10.8571 21.7005 10.8571 21.5068 10.8571C21.5768 10.9781 21.6467 11.0991 21.7188 11.2237C22.091 12.0948 21.9786 13.0623 21.9608 13.991C21.9587 14.1861 21.9567 14.3811 21.955 14.5761C21.95 15.0508 21.943 15.5253 21.9341 16C21.8401 16 21.7461 16 21.6493 16C21.6522 16.1355 21.6551 16.271 21.6582 16.4107C21.6493 16.8571 21.6493 16.8571 21.5068 17.1428C20.9428 17.1428 20.3788 17.1428 19.7977 17.1428C19.7507 17.2371 19.7037 17.3314 19.6552 17.4285C19.6082 17.2871 19.5612 17.1457 19.5128 17C19.4188 16.9528 19.3248 16.9057 19.2279 16.8571C19.369 16.4328 19.369 16.4328 19.5128 16C17.1157 16 14.7186 16 12.2489 16C12.2019 16.33 12.1548 16.66 12.1064 17C11.6932 17.2762 11.5514 17.3287 11.0827 17.375C10.9035 17.3926 10.7243 17.4103 10.5397 17.4285C10.5397 17.3342 10.5397 17.24 10.5397 17.1428C10.2577 17.2135 10.2577 17.2135 9.96996 17.2857C9.87596 17.05 9.78196 16.8142 9.6851 16.5714C9.75561 16.5007 9.75561 16.5007 9.82753 16.4285C9.73353 16.3342 9.63953 16.24 9.54267 16.1428C9.58968 16.0485 9.63668 15.9542 9.6851 15.8571C9.69214 15.6009 9.6903 15.3444 9.68399 15.0881C9.6816 14.9331 9.67922 14.778 9.67676 14.6183C9.67052 14.2927 9.66312 13.9672 9.6545 13.6417C9.6423 12.6984 9.71299 12.0006 10.1124 11.1428C9.83038 11.0014 9.54837 10.86 9.25781 10.7142C9.35182 10.4314 9.44582 10.1485 9.54267 9.85709C10.0127 9.85709 10.4827 9.85709 10.967 9.85709C10.9934 9.76281 11.0199 9.66852 11.0471 9.57138C11.41 8.81166 11.979 8.1804 12.6761 7.71424C13.089 7.67629 13.4893 7.65407 13.9029 7.64504C14.0839 7.63987 14.0839 7.63987 14.2686 7.6346C14.5239 7.62771 14.7793 7.62151 15.0347 7.61595C15.4239 7.60716 15.813 7.59528 16.2021 7.5831C16.4505 7.57677 16.699 7.57063 16.9474 7.56468C17.121 7.55913 17.121 7.55913 17.2982 7.55346C18.4926 7.53214 19.2528 7.85985 20.0825 8.71424ZM12.1481 9.0418C11.8455 9.57391 11.6514 10.1136 11.5367 10.7142C11.684 10.8938 11.684 10.8938 12.0045 10.8743C12.1484 10.874 12.2923 10.8736 12.4406 10.8733C12.6031 10.8733 12.7656 10.8733 12.9331 10.8733C13.1983 10.8722 13.1983 10.8722 13.469 10.871C13.649 10.8708 13.829 10.8706 14.0144 10.8704C14.4937 10.8698 14.973 10.8685 15.4524 10.8669C15.9411 10.8654 16.4299 10.8648 16.9187 10.8641C17.8784 10.8625 18.838 10.8601 19.7977 10.8571C19.9433 10.3931 19.9433 10.3931 19.7821 9.93243C19.705 9.81034 19.6279 9.68824 19.5484 9.56245C19.4728 9.43999 19.3971 9.31753 19.3192 9.19136C18.9572 8.64263 18.9572 8.64263 18.3919 8.36833C18.2921 8.36541 18.1923 8.36248 18.0895 8.35947C17.9758 8.35535 17.8621 8.35123 17.745 8.34699C17.6226 8.34517 17.5002 8.34335 17.3741 8.34147C17.2475 8.33903 17.1208 8.33658 16.9903 8.33407C16.7222 8.33002 16.454 8.32722 16.1858 8.32557C15.7772 8.32141 15.3695 8.30813 14.9612 8.29459C13.3835 8.20504 13.3835 8.20504 12.1481 9.0418ZM19.3704 12.1428C19.0316 12.6012 19.0316 12.6012 18.9431 13.1428C19.6011 13.0957 20.2591 13.0485 20.9371 13C21.0941 12.3703 21.0207 12.1582 20.7947 11.5714C20.1094 11.5714 19.9011 11.7237 19.3704 12.1428ZM10.6821 11.7142C10.6351 12.1385 10.5881 12.5628 10.5397 13C11.0453 13.1267 11.4145 13.1579 11.9284 13.1517C12.0687 13.1504 12.2089 13.1492 12.3535 13.1478C12.4599 13.1462 12.5664 13.1445 12.6761 13.1428C12.3137 12.5504 11.9843 12.0896 11.3943 11.7142C11.0082 11.6662 11.0082 11.6662 10.6821 11.7142ZM13.5307 14.2857C13.9131 14.6692 14.1097 14.6082 14.6435 14.6093C14.8908 14.6099 14.8908 14.6099 15.1431 14.6104C15.316 14.6093 15.489 14.6082 15.6672 14.6071C15.8401 14.6082 16.0131 14.6093 16.1913 14.6104C16.3562 14.6101 16.521 14.6097 16.6909 14.6093C16.9187 14.6088 16.9187 14.6088 17.151 14.6083C17.542 14.6084 17.542 14.6084 17.8036 14.2857C16.3936 14.2857 14.9835 14.2857 13.5307 14.2857Z" fill="#FAF8F6"/>
<path d="M28.4859 17.7144C28.2439 19.7448 26.6603 21.9137 25.21 23.2858C25.116 23.2858 25.022 23.2858 24.9251 23.2858C24.9251 23.3801 24.9251 23.4744 24.9251 23.5715C24.6926 23.7679 24.4548 23.9581 24.213 24.1429C24.072 24.2844 24.072 24.2844 23.9281 24.4286C20.3594 26.6905 16.8375 27.5923 12.6667 26.8081C12.2248 26.7342 11.8391 26.6932 11.3942 26.7144C11.3002 26.5258 11.2062 26.3372 11.1094 26.1429C11.1876 26.1334 11.2658 26.1238 11.3464 26.1139C11.8174 25.9528 12.0847 25.6633 12.4447 25.3215C13.3196 24.4997 13.3196 24.4997 13.7443 24.1519C14.0903 23.879 14.0903 23.879 14.323 23.6161C14.5277 23.4286 14.5277 23.4286 14.866 23.2947C15.2485 23.1612 15.2485 23.1612 15.5425 22.8929C16.7366 21.9557 18.2033 21.3796 19.5751 20.7501C19.8432 20.6264 20.1113 20.5026 20.3793 20.3788C20.6197 20.2678 20.8603 20.1571 21.1009 20.0465C21.2348 19.9841 21.3688 19.9216 21.5068 19.8572C21.6159 19.8076 21.7249 19.758 21.8373 19.707C22.1023 19.5864 22.1023 19.5864 22.219 19.2858C22.36 19.3329 22.501 19.3801 22.6462 19.4286C23 19.3368 23 19.3368 23.3673 19.1786C23.4923 19.1293 23.6174 19.0799 23.7462 19.0291C24.1123 18.8681 24.1123 18.8681 24.3554 18.4286C24.4259 18.5701 24.4259 18.5701 24.4978 18.7144C24.5984 18.6841 24.699 18.6538 24.8026 18.6226C25.2586 18.4857 25.715 18.35 26.1714 18.2144C26.3297 18.1667 26.4879 18.119 26.651 18.0698C26.8034 18.0247 26.9558 17.9796 27.1128 17.9331C27.253 17.8912 27.3932 17.8493 27.5377 17.8062C27.9162 17.7144 27.9162 17.7144 28.4859 17.7144Z" fill="#FAF8F6"/>
<path d="M28.6285 16.7144C28.7695 16.9972 28.7695 16.9972 28.9134 17.2858C28.8194 17.2858 28.7254 17.2858 28.6285 17.2858C28.6285 17.3801 28.6285 17.4744 28.6285 17.5715C28.5134 17.5807 28.3983 17.59 28.2797 17.5995C25.6941 17.8131 23.1848 18.1281 20.6524 18.7144C20.5121 18.7458 20.3719 18.7773 20.2273 18.8097C16.8574 19.5712 13.6658 20.7305 10.5293 22.175C10.255 22.2858 10.255 22.2858 9.97012 22.2858C9.89962 22.4272 9.89962 22.4272 9.82769 22.5715C9.56989 22.7197 9.56989 22.7197 9.23683 22.8756C9.11712 22.9321 8.99741 22.9885 8.87408 23.0467C8.68515 23.1341 8.68515 23.1341 8.49241 23.2233C8.36756 23.2821 8.24271 23.341 8.11408 23.4016C7.64373 23.6219 7.18713 23.8353 6.69422 24.0001C6.41393 23.7305 6.13532 23.4596 5.85744 23.1876C5.77831 23.1118 5.69918 23.036 5.61765 22.9579C5.17813 22.5251 4.87803 22.18 4.7002 21.5715C5.1141 21.392 5.3833 21.2858 5.83964 21.2858C5.88664 21.1915 5.93364 21.0972 5.98207 21.0001C6.29912 20.9045 6.62076 20.8242 6.94348 20.7501C7.88691 20.5269 8.81729 20.273 9.74758 20.0001C10.6985 19.7235 11.6506 19.4618 12.614 19.2322C12.7131 19.2083 12.8123 19.1843 12.9144 19.1597C13.3759 19.0525 13.7653 19.0001 14.243 19.0001C14.29 18.9058 14.337 18.8115 14.3855 18.7144C14.6896 18.6747 14.9941 18.6369 15.2996 18.6092C15.6527 18.573 15.9951 18.5181 16.3439 18.4526C20.3691 17.697 24.4 17.3325 28.4861 17.1429C28.5331 17.0015 28.5801 16.8601 28.6285 16.7144Z" fill="#FAF8F6"/>
<path d="M87.1674 33.4286C87.7192 33.412 88.2711 33.4019 88.8231 33.3929C89.0569 33.3857 89.0569 33.3857 89.2955 33.3784C90.1976 33.3674 90.7642 33.3738 91.4403 34.0001C91.8428 34.6056 91.8192 35.146 91.7251 35.8572C91.433 36.3422 91.1974 36.5434 90.7281 36.8572C90.8104 36.9657 90.8926 37.0741 90.9774 37.1859C91.0831 37.3279 91.1889 37.4698 91.2978 37.6161C91.4036 37.757 91.5093 37.8979 91.6183 38.043C91.8676 38.4286 91.8676 38.4286 91.8676 38.8572C91.1677 38.9825 91.1677 38.9825 90.7281 38.8572C90.2077 38.363 89.7674 37.7872 89.4462 37.1429C89.1763 37.0765 89.1763 37.0765 88.8676 37.0536C88.6825 37.036 88.4975 37.0183 88.3068 37.0001C88.3068 37.6129 88.3068 38.2258 88.3068 38.8572C87.9745 38.8633 87.6421 38.8631 87.3098 38.8572C87.0297 38.5763 87.1277 38.0378 87.1173 37.653C87.114 37.5464 87.1107 37.4398 87.1073 37.33C87.1005 37.104 87.0941 36.8779 87.0879 36.6519C87.0784 36.3061 87.0673 35.9603 87.0561 35.6145C87.0497 35.3952 87.0434 35.1758 87.0372 34.9565C87.0338 34.853 87.0304 34.7494 87.0269 34.6426C87.0157 34.1939 87.0245 33.8584 87.1674 33.4286ZM88.3068 34.4286C88.3068 34.9472 88.3068 35.4658 88.3068 36.0001C88.6065 36.0078 88.9062 36.0133 89.2059 36.0179C89.3728 36.0212 89.5397 36.0245 89.7116 36.028C90.1817 36.0362 90.1817 36.0362 90.5857 35.7143C90.6688 35.2919 90.6688 35.2919 90.5857 34.8572C90.2533 34.5151 90.0641 34.4333 89.5864 34.3868C89.3584 34.3942 89.3584 34.3942 89.1258 34.4018C88.9723 34.4057 88.8188 34.4096 88.6607 34.4136C88.5439 34.4185 88.4271 34.4235 88.3068 34.4286Z" fill="#FAF8F6"/>
<path d="M4.70007 33.7143C5.41099 34.4132 5.61169 35.182 5.65257 36.1607C5.6112 37.0283 5.4676 37.665 4.8425 38.2857C3.95445 38.9503 3.07556 39.1143 1.99389 39C1.14949 38.7436 0.642214 38.2856 0.14229 37.5714C-0.020551 37.0815 -0.0291697 36.6859 -0.0357476 36.1697C-0.0412557 35.9119 -0.0412557 35.9119 -0.046875 35.649C0.00401895 35.0978 0.152981 34.7614 0.427151 34.2857C0.474154 34.1914 0.521156 34.0972 0.569582 34C0.812715 33.8521 0.812715 33.8521 1.1126 33.7054C1.21046 33.6566 1.30832 33.6078 1.40914 33.5575C2.46764 33.1025 3.68609 33.1682 4.70007 33.7143ZM1.42416 34.8572C1.08347 35.3956 0.960882 35.8184 1.00578 36.4464C1.14726 37.033 1.27477 37.3029 1.70903 37.7143C2.14515 37.9744 2.40044 38.0004 2.91078 37.9911C3.54704 37.8231 3.80539 37.6005 4.27277 37.1429C4.52056 36.6458 4.47906 36.1149 4.41521 35.5714C4.1492 34.9952 3.89735 34.7034 3.32917 34.4464C2.5532 34.187 2.08444 34.399 1.42416 34.8572Z" fill="#FAF8F6"/>
<path d="M99.1316 34.5714C99.55 34.7143 99.55 34.7143 99.8437 34.8571C99.8907 34.7629 99.9377 34.6686 99.9861 34.5714C100.362 34.5714 100.738 34.5714 101.126 34.5714C101.138 35.2202 101.146 35.869 101.152 36.5179C101.156 36.7015 101.159 36.8851 101.163 37.0742C101.165 37.2519 101.166 37.4296 101.167 37.6127C101.17 37.7758 101.172 37.9389 101.174 38.1069C101.106 38.7585 100.9 39.2451 100.413 39.6875C99.8358 40.0315 99.293 40.0262 98.642 40.0268C98.4541 40.0288 98.2663 40.0308 98.0728 40.0329C97.614 40.0032 97.3741 39.9602 96.9951 39.7143C97.0891 39.4314 97.1831 39.1486 97.28 38.8571C97.3945 38.8807 97.5091 38.9043 97.6271 38.9286C98.0251 38.9846 98.4018 39.0226 98.8022 39.0357C98.9085 39.0394 99.0148 39.0431 99.1243 39.0469C99.4982 38.9869 99.6146 38.8685 99.8437 38.5714C99.8907 38.43 99.9377 38.2886 99.9861 38.1429C99.8451 38.243 99.7041 38.3432 99.5589 38.4464C99.1088 38.7104 98.8611 38.7387 98.3571 38.6071C98.1897 38.5482 98.0222 38.4893 97.8497 38.4286C97.8027 38.5229 97.7557 38.6171 97.7073 38.7143C97.6456 38.6082 97.5839 38.5021 97.5203 38.3929C97.3009 38.0078 97.3009 38.0078 97.0485 37.7411C96.7593 37.2795 96.6943 36.8209 96.7102 36.2857C96.9337 35.5386 97.2038 35.1462 97.8497 34.7143C98.2813 34.4978 98.6546 34.5471 99.1316 34.5714ZM97.8497 36.2857C97.8395 36.7942 97.8923 37.0316 98.2325 37.4107C98.6667 37.6226 98.9389 37.6413 99.4164 37.5714C99.7725 37.3571 99.7725 37.3571 99.9861 37C100.093 36.5714 100.093 36.5714 99.9861 36.1429C99.6459 35.7723 99.4086 35.6018 98.9179 35.4911C98.3832 35.6117 98.1713 35.8493 97.8497 36.2857Z" fill="#FAF8F6"/>
<path d="M68.2246 33.4285C68.6418 33.5821 68.9792 33.7712 69.364 33.9999C69.364 34.5713 69.364 34.5713 69.0792 34.9999C68.9646 34.9528 68.85 34.9056 68.732 34.8571C68.1195 34.6846 67.5737 34.6889 66.9427 34.7142C66.9427 34.9028 66.9427 35.0913 66.9427 35.2856C67.0903 35.3409 67.2379 35.3961 67.39 35.453C67.5852 35.5281 67.7803 35.6033 67.9753 35.6785C68.0725 35.7146 68.1696 35.7507 68.2697 35.7879C68.8379 36.0092 69.2766 36.2072 69.6489 36.7142C69.7633 37.201 69.74 37.6523 69.6489 38.1428C69.2263 38.7412 68.7963 39.0023 68.0822 39.1428C67.1996 39.1138 66.422 38.8878 65.6608 38.4285C65.5668 38.2871 65.4728 38.1456 65.376 37.9999C65.564 37.7642 65.752 37.5285 65.9457 37.2856C66.6166 37.5473 66.6166 37.5473 66.9338 37.7321C67.3298 37.9005 67.6565 37.8849 68.0822 37.8571C68.1762 37.8099 68.2702 37.7628 68.367 37.7142C68.367 37.5256 68.367 37.3371 68.367 37.1428C68.1277 37.0574 68.1277 37.0574 67.8835 36.9703C67.6738 36.894 67.464 36.8175 67.2543 36.741C67.1492 36.7037 67.0441 36.6664 66.9358 36.628C66.8343 36.5907 66.7329 36.5534 66.6284 36.515C66.5351 36.4813 66.4419 36.4477 66.3458 36.413C66.047 36.2653 65.8713 36.1158 65.6608 35.8571C65.5022 35.1962 65.4515 34.7362 65.8033 34.1428C66.5959 33.4272 67.1761 33.3108 68.2246 33.4285Z" fill="#FAF8F6"/>
<path d="M35.75 33.4285C36.173 33.4285 36.596 33.4285 37.0319 33.4285C37.2197 33.9132 37.4063 34.3985 37.5927 34.8838C37.6458 35.0209 37.699 35.158 37.7538 35.2993C37.8047 35.4323 37.8557 35.5654 37.9082 35.7025C37.9551 35.8244 38.0021 35.9463 38.0506 36.072C38.1709 36.4271 38.2489 36.7737 38.3137 37.1428C38.4078 37.1428 38.5018 37.1428 38.5986 37.1428C38.6257 36.9884 38.6257 36.9884 38.6534 36.831C38.7397 36.4348 38.8586 36.0804 39.0042 35.7025C39.0552 35.5694 39.1061 35.4364 39.1586 35.2993C39.2117 35.1622 39.2649 35.0251 39.3197 34.8838C39.3734 34.744 39.4271 34.6041 39.4824 34.46C39.6146 34.116 39.7473 33.7721 39.8805 33.4285C40.3035 33.4285 40.7265 33.4285 41.1624 33.4285C40.8268 34.5017 40.4112 35.536 39.9804 36.5733C39.8614 36.8602 39.7432 37.1474 39.6251 37.4346C39.5497 37.6171 39.4742 37.7996 39.3987 37.982C39.3305 38.1467 39.2624 38.3113 39.1922 38.4809C39.0259 38.857 39.0259 38.857 38.8835 38.9999C38.5512 39.0057 38.2187 39.006 37.8865 38.9999C37.842 38.8898 37.7975 38.7797 37.7517 38.6662C37.5841 38.2516 37.4163 37.8371 37.2484 37.4226C37.141 37.1574 37.0339 36.8921 36.9267 36.6268C36.5832 35.7791 36.2368 34.9365 35.8458 34.1095C35.75 33.857 35.75 33.857 35.75 33.4285Z" fill="#FAF8F6"/>
<path d="M15.5963 34.6607C15.7535 34.6567 15.9107 34.6526 16.0726 34.6484C16.6223 34.729 16.8452 34.8941 17.2343 35.2857C17.5054 35.7268 17.5532 36.0546 17.547 36.5692C17.5461 36.7027 17.5451 36.8362 17.5442 36.9738C17.5418 37.1121 17.5394 37.2504 17.537 37.3929C17.5357 37.5334 17.5344 37.6739 17.5331 37.8186C17.5297 38.1648 17.525 38.511 17.5192 38.8571C17.3699 38.8547 17.3699 38.8547 17.2176 38.8521C17.088 38.8508 16.9584 38.8495 16.8248 38.8482C16.6959 38.8466 16.567 38.8449 16.4342 38.8432C16.0924 38.8339 16.0924 38.8339 15.81 39C15.1501 39.0552 14.7912 39.0528 14.1809 38.7857C13.7503 38.3643 13.6962 38.1419 13.668 37.5569C13.6796 36.9877 13.6796 36.9877 13.816 36.7143C14.1097 36.5357 14.1097 36.5357 14.3857 36.4286C14.2264 35.8963 14.2264 35.8963 13.816 35.5714C13.8427 35.3036 13.8427 35.3036 13.9584 35C14.5051 34.7163 14.9859 34.6679 15.5963 34.6607ZM14.5281 36C14.5751 36.0943 14.6221 36.1886 14.6705 36.2857C15.0716 36.3527 15.0716 36.3527 15.534 36.375C15.7701 36.391 15.7701 36.391 16.0108 36.4074C16.1326 36.4144 16.2543 36.4214 16.3797 36.4286C16.3302 36.1464 16.3302 36.1464 16.2373 35.8571C15.6355 35.5553 15.0699 35.6377 14.5281 36ZM14.9554 37.3571C14.9084 37.4279 14.8614 37.4986 14.813 37.5714C14.86 37.7129 14.907 37.8543 14.9554 38C15.6008 38.1334 15.6008 38.1334 16.2373 38C16.3872 37.6241 16.3872 37.6241 16.3797 37.4286C16.3797 37.3343 16.3797 37.24 16.3797 37.1429C15.6162 37.0662 15.6162 37.0662 14.9554 37.3571Z" fill="#FAF8F6"/>
<path d="M46.1475 33.1428C46.4765 33.1428 46.8055 33.1428 47.1445 33.1428C47.1915 33.7557 47.2385 34.3685 47.2869 35C47.5219 34.8585 47.7569 34.7171 47.9991 34.5714C48.6413 34.5714 48.9124 34.6431 49.4056 35.0625C49.8206 35.5645 49.8682 35.7906 49.8646 36.4297C49.8641 36.5705 49.8636 36.7114 49.8632 36.8566C49.862 37.0041 49.8608 37.1516 49.8596 37.3035C49.8589 37.4521 49.8583 37.6008 49.8576 37.7539C49.8559 38.1216 49.8536 38.4894 49.8507 38.8571C49.4746 38.8571 49.0986 38.8571 48.7112 38.8571C48.7091 38.7771 48.7071 38.6971 48.7049 38.6147C48.6943 38.252 48.6805 37.8894 48.6667 37.5268C48.6635 37.4009 48.6603 37.275 48.657 37.1453C48.6494 36.9637 48.6494 36.9637 48.6417 36.7784C48.6379 36.667 48.6342 36.5555 48.6304 36.4406C48.5545 36.0737 48.4373 35.9378 48.1415 35.7143C47.837 35.7502 47.6488 35.7799 47.4293 36C47.3127 36.8188 47.2755 37.6065 47.2958 38.433C47.2869 38.7143 47.2869 38.7143 47.1445 38.8571C46.8155 38.8571 46.4864 38.8571 46.1475 38.8571C46.1475 36.9714 46.1475 35.0857 46.1475 33.1428Z" fill="#FAF8F6"/>
<path d="M26.6972 34.9463C27.3302 35.5348 27.6638 35.9812 27.7032 36.857C27.6719 37.5311 27.5299 37.9233 27.0622 38.4285C26.4003 38.9231 25.9132 39.0887 25.0877 39.0451C24.3678 38.9382 23.7921 38.5817 23.349 37.9993C23.0499 37.3551 23.0731 36.6835 23.2166 35.9999C23.9765 34.6959 25.3191 34.2929 26.6972 34.9463ZM24.4985 35.9999C24.2783 36.4416 24.3142 36.7991 24.356 37.2856C24.6479 37.7134 24.8559 37.8332 25.3442 37.9999C25.7916 38.0325 25.7916 38.0325 26.1898 37.7945C26.5547 37.3532 26.59 37.1165 26.5526 36.5574C26.4581 36.1299 26.2794 35.9558 25.9228 35.7142C25.3089 35.4774 25.0136 35.6124 24.4985 35.9999Z" fill="#FAF8F6"/>
<path d="M118.787 34.7142C119.276 34.9552 119.276 34.9552 119.641 35.2856C119.753 35.3828 119.865 35.4801 119.98 35.5802C120.337 36.2289 120.317 36.847 120.211 37.5713C119.926 38.1434 119.616 38.5226 119.072 38.857C118.33 39.105 117.626 39.0947 116.891 38.8302C116.39 38.4916 116.065 38.1123 115.796 37.5713C115.719 36.8677 115.718 36.3043 116.027 35.6606C116.856 34.7419 117.579 34.5354 118.787 34.7142ZM117.22 35.857C116.867 36.3885 116.869 36.6567 116.935 37.2856C117.227 37.7134 117.435 37.8332 117.923 37.9999C118.371 38.0325 118.371 38.0325 118.769 37.7945C119.134 37.3532 119.169 37.1165 119.132 36.5574C119.037 36.1299 118.859 35.9558 118.502 35.7142C117.976 35.5296 117.681 35.5381 117.22 35.857Z" fill="#FAF8F6"/>
<path d="M110.241 34.6696C110.385 34.6672 110.529 34.6648 110.677 34.6624C111.159 34.7221 111.419 34.8542 111.807 35.1428C112.126 35.6216 112.126 35.7739 112.12 36.332C112.119 36.4789 112.118 36.6257 112.117 36.777C112.115 36.9302 112.113 37.0833 112.11 37.241C112.109 37.3958 112.108 37.5506 112.106 37.7101C112.103 38.0924 112.098 38.4748 112.092 38.8571C111.665 38.8571 111.238 38.8571 110.81 38.8571C110.716 38.9043 110.622 38.9514 110.526 39C109.765 39.05 109.294 39.0651 108.674 38.5714C108.318 38.0356 108.313 37.7773 108.389 37.1428C108.699 36.7671 108.951 36.5038 109.386 36.2857C109.653 36.2756 109.92 36.2736 110.187 36.2768C110.402 36.2787 110.402 36.2787 110.62 36.2807C110.73 36.2823 110.84 36.284 110.953 36.2857C110.859 36.1443 110.765 36.0028 110.668 35.8571C110.396 35.7998 110.396 35.7998 110.098 35.8214C109.948 35.8247 109.948 35.8247 109.796 35.8281C109.516 35.8428 109.516 35.8428 109.244 36C109.244 36.0943 109.244 36.1885 109.244 36.2857C109.15 36.2857 109.056 36.2857 108.959 36.2857C108.865 35.8614 108.771 35.4371 108.674 35C109.214 34.7501 109.647 34.6719 110.241 34.6696ZM109.529 37.4285C109.529 37.6171 109.529 37.8057 109.529 38C110.226 38.1692 110.226 38.1692 110.873 37.9375C110.946 37.8638 111.02 37.7901 111.095 37.7143C111.048 37.5257 111.001 37.3371 110.953 37.1428C110.157 37.0565 110.157 37.0565 109.529 37.4285Z" fill="#FAF8F6"/>
<path d="M95.1432 34.7142C95.7309 35.0078 95.9896 35.4122 96.2826 36C96.2826 36.4242 96.2826 36.8485 96.2826 37.2857C95.3426 37.2857 94.4025 37.2857 93.434 37.2857C93.575 37.4742 93.716 37.6628 93.8613 37.8571C94.4202 37.9023 94.8571 37.8891 95.4013 37.7678C95.7129 37.7142 95.7129 37.7142 96.1402 38C96.0027 38.3636 95.8641 38.5637 95.5705 38.8214C94.9482 39.0814 94.3834 39.0972 93.7189 39C92.9878 38.6266 92.5538 38.2086 92.2946 37.4285C92.1847 36.4961 92.3062 35.8992 92.8643 35.1428C93.488 34.5551 94.3361 34.586 95.1432 34.7142ZM93.6744 35.9196C93.421 36.2325 93.421 36.2325 93.434 36.4285C94.045 36.4285 94.6561 36.4285 95.2856 36.4285C95.0337 35.9741 95.0337 35.9741 94.7159 35.5714C94.1807 35.4843 94.0565 35.5156 93.6744 35.9196Z" fill="#FAF8F6"/>
<path d="M61.6728 34.7142C62.1322 34.9446 62.4132 35.2704 62.7143 35.6875C62.8659 36.1713 62.9134 36.6369 62.9547 37.1428C62.8123 37.2857 62.8123 37.2857 62.5346 37.3019C62.416 37.3011 62.2974 37.3004 62.1752 37.2996C62.0472 37.2992 61.9191 37.2987 61.7872 37.2982C61.6525 37.297 61.5178 37.2958 61.3791 37.2946C61.2438 37.294 61.1086 37.2933 60.9693 37.2926C60.6341 37.291 60.2989 37.2886 59.9637 37.2857C60.1404 37.5799 60.1404 37.5799 60.391 37.8571C61.0414 37.9097 61.6077 37.8734 62.2425 37.7142C62.3836 37.9028 62.5246 38.0914 62.6698 38.2857C61.9285 38.8923 61.5602 39.0503 60.6107 39.0407C59.9491 38.9663 59.5618 38.6201 59.1358 38.1339C58.7522 37.5061 58.7364 36.8571 58.8242 36.1428C59.4677 34.8758 60.2918 34.4766 61.6728 34.7142ZM59.9637 36.1428C59.9637 36.2371 59.9637 36.3314 59.9637 36.4285C60.5747 36.4285 61.1857 36.4285 61.8153 36.4285C61.5634 35.9741 61.5634 35.9741 61.2455 35.5714C60.6039 35.4844 60.3613 35.6406 59.9637 36.1428Z" fill="#FAF8F6"/>
<path d="M79.3339 34.7143C79.8749 34.9709 80.1201 35.1852 80.4555 35.6786C80.6157 36.1429 80.6157 36.1429 80.6157 37.2858C79.6757 37.2858 78.7357 37.2858 77.7671 37.2858C77.8611 37.5215 77.9551 37.7572 78.052 38.0001C78.9079 37.916 78.9079 37.916 79.7522 37.759C79.8492 37.7443 79.9461 37.7295 80.046 37.7143C80.14 37.8086 80.234 37.9029 80.3309 38.0001C80.322 38.2768 80.322 38.2768 80.1884 38.5715C79.6501 39.0592 79.0929 39.0735 78.3986 39.0497C77.6949 38.9489 77.3255 38.5672 76.8591 38.0626C76.5307 37.3657 76.4996 36.7576 76.6277 36.0001C77.1707 34.7903 78.0849 34.556 79.3339 34.7143ZM77.9986 35.8304C77.7388 36.1163 77.7388 36.1163 77.7671 36.4286C78.3782 36.4286 78.9892 36.4286 79.6187 36.4286C79.2834 35.6978 79.2834 35.6978 78.773 35.5626C78.3237 35.5287 78.3237 35.5287 77.9986 35.8304Z" fill="#FAF8F6"/>
<path d="M72.9246 34.7144C73.3926 34.944 73.6857 35.2411 73.9216 35.7144C73.9336 35.9526 73.9369 36.1913 73.9356 36.4298C73.9351 36.5707 73.9346 36.7115 73.9342 36.8567C73.933 37.0042 73.9318 37.1517 73.9305 37.3037C73.9299 37.4523 73.9293 37.6009 73.9286 37.754C73.9269 38.1218 73.9246 38.4895 73.9216 38.8572C73.4944 38.8572 73.0671 38.8572 72.6398 38.8572C72.4988 38.9044 72.3578 38.9515 72.2125 39.0001C71.4955 39.0534 71.0844 39.0045 70.5033 38.5715C70.2185 38.2858 70.2185 38.2858 70.165 37.7412C70.176 37.2762 70.2214 37.1382 70.4766 36.7233C70.9691 36.2576 71.3765 36.2692 72.0255 36.2769C72.1671 36.2782 72.3087 36.2795 72.4545 36.2808C72.6167 36.2833 72.6167 36.2833 72.7822 36.2858C72.4561 35.9092 72.4013 35.8607 71.8742 35.8215C71.4488 35.851 71.0591 35.8996 70.6457 36.0001C70.5987 35.6701 70.5517 35.3401 70.5033 35.0001C71.2425 34.5499 72.0904 34.6095 72.9246 34.7144ZM71.3579 37.4287C71.3579 37.6172 71.3579 37.8058 71.3579 38.0001C72.0557 38.1694 72.0557 38.1694 72.7021 37.9376C72.7755 37.8639 72.849 37.7903 72.9246 37.7144C72.8776 37.5258 72.8306 37.3372 72.7822 37.143C71.9865 37.0566 71.9865 37.0566 71.3579 37.4287Z" fill="#FAF8F6"/>
<path d="M44.1532 34.7144C44.6943 34.9709 44.9395 35.1852 45.2749 35.6786C45.4351 36.1429 45.4351 36.1429 45.4351 37.2858C44.4951 37.3329 43.555 37.3801 42.5865 37.4286C42.6805 37.5701 42.7745 37.7115 42.8714 37.8572C43.1612 37.9147 43.1612 37.9147 43.4856 37.8929C43.5998 37.8896 43.714 37.8863 43.8317 37.8829C44.1717 37.8628 44.1717 37.8628 44.5716 37.7679C44.6686 37.7503 44.7655 37.7326 44.8654 37.7144C44.9594 37.8086 45.0534 37.9029 45.1503 38.0001C45.1413 38.2769 45.1413 38.2769 45.0078 38.5715C44.4693 39.0593 43.9123 39.0731 43.218 39.0503C42.7004 38.9753 42.4054 38.772 42.0168 38.4286C41.9052 38.3344 41.7935 38.2401 41.6785 38.1429C41.3061 37.4533 41.3446 36.766 41.4471 36.0001C42.0163 34.7948 42.8989 34.5349 44.1532 34.7144ZM42.8358 35.8394C42.5563 36.1141 42.5563 36.1141 42.5865 36.4286C43.1505 36.4286 43.7146 36.4286 44.2957 36.4286C44.2139 35.8284 44.2139 35.8284 43.7259 35.5715C43.1596 35.5105 43.1596 35.5105 42.8358 35.8394Z" fill="#FAF8F6"/>
<path d="M9.25779 34.7142C9.62568 35.0271 9.89647 35.2811 10.1124 35.7142C10.1244 35.9524 10.1276 36.1911 10.1263 36.4296C10.1258 36.5705 10.1254 36.7114 10.1249 36.8565C10.1237 37.004 10.1225 37.1515 10.1213 37.3035C10.1206 37.4521 10.12 37.6007 10.1193 37.7538C10.1176 38.1216 10.1153 38.4893 10.1124 38.8571C9.73636 38.8571 9.36034 38.8571 8.97293 38.8571C8.97293 38.0556 8.97293 37.2542 8.97293 36.4285C8.87892 36.4285 8.78492 36.4285 8.68807 36.4285C8.73507 36.2871 8.78207 36.1456 8.8305 35.9999C8.49884 35.8287 8.49884 35.8287 8.11835 35.7142C7.66698 35.9437 7.66698 35.9437 7.62947 36.2946C7.62574 36.4128 7.62201 36.531 7.61817 36.6528C7.61312 36.7808 7.60807 36.9088 7.60287 37.0407C7.59805 37.2415 7.59805 37.2415 7.59313 37.4464C7.58827 37.5813 7.5834 37.7163 7.57839 37.8554C7.56662 38.1893 7.55678 38.5231 7.54862 38.8571C7.17261 38.8571 6.79659 38.8571 6.40918 38.8571C6.40918 37.4899 6.40918 36.1228 6.40918 34.7142C6.73819 34.7142 7.06721 34.7142 7.40619 34.7142C7.4532 34.8085 7.5002 34.9028 7.54862 34.9999C7.64557 34.9263 7.74251 34.8526 7.84239 34.7767C8.39482 34.5056 8.67052 34.5459 9.25779 34.7142Z" fill="#FAF8F6"/>
<path d="M105.684 34.5715C105.684 35.9858 105.684 37.4001 105.684 38.8572C105.161 38.8572 104.639 38.8572 104.117 38.8572C104.023 38.9044 103.929 38.9515 103.832 39.0001C103.544 39.0079 103.544 39.0079 103.209 38.9822C103.044 38.9729 103.044 38.9729 102.876 38.9633C102.364 38.7967 102.237 38.6224 101.98 38.143C101.912 37.5549 101.927 36.9751 101.945 36.384C101.949 36.1436 101.949 36.1436 101.953 35.8983C101.959 35.5035 101.969 35.109 101.98 34.7144C102.309 34.7144 102.638 34.7144 102.977 34.7144C102.986 34.895 102.995 35.0757 103.004 35.2618C103.016 35.499 103.028 35.7362 103.04 35.9733C103.045 36.0924 103.051 36.2114 103.057 36.3341C103.063 36.4487 103.069 36.5634 103.075 36.6815C103.08 36.787 103.085 36.8924 103.091 37.0011C103.113 37.3155 103.113 37.3155 103.262 37.7144C103.596 37.8243 103.596 37.8243 103.974 37.8572C104.275 37.6358 104.387 37.4995 104.463 37.1309C104.467 37.0194 104.471 36.9079 104.475 36.7931C104.48 36.672 104.485 36.5509 104.49 36.4262C104.493 36.3003 104.496 36.1744 104.5 36.0447C104.505 35.9172 104.509 35.7897 104.514 35.6583C104.526 35.3437 104.536 35.0291 104.544 34.7144C105.523 34.5715 105.523 34.5715 105.684 34.5715Z" fill="#FAF8F6"/>
<path d="M83.6066 34.7143C84.0606 34.9286 84.0606 34.9286 84.3187 35.1428C84.203 35.4911 84.203 35.4911 84.0339 35.8571C83.5101 36.0322 83.3857 35.9237 82.8944 35.7143C82.7534 35.7143 82.6124 35.7143 82.4671 35.7143C82.4201 35.8557 82.3731 35.9971 82.3247 36.1428C82.4209 36.1671 82.5171 36.1915 82.6162 36.2165C83.9809 36.5884 83.9809 36.5884 84.3187 37.1428C84.3988 37.6339 84.3988 37.6339 84.3187 38.1428C84.0093 38.5186 83.7566 38.7819 83.3217 39C82.4735 39.0577 81.9353 38.9777 81.1853 38.5714C81.0912 38.43 80.9972 38.2886 80.9004 38.1428C81.0414 37.9543 81.1824 37.7657 81.3277 37.5714C81.4217 37.6186 81.5157 37.6657 81.6125 37.7143C82.1624 37.8981 82.6012 37.8768 83.1793 37.8571C83.1793 37.7628 83.1793 37.6686 83.1793 37.5714C83.0831 37.5368 82.9869 37.5022 82.8877 37.4665C81.5231 36.9522 81.5231 36.9522 81.1853 36.4286C81.0899 35.8664 81.1352 35.6466 81.4523 35.1696C82.0589 34.5433 82.7795 34.6425 83.6066 34.7143Z" fill="#FAF8F6"/>
<path d="M32.4739 34.7142C32.9279 34.9285 32.9279 34.9285 33.1861 35.1428C33.0921 35.3785 32.998 35.6142 32.9012 35.857C32.1257 35.7863 32.1257 35.7863 31.3345 35.7142C31.3345 35.8085 31.3345 35.9028 31.3345 35.9999C31.4307 36.0329 31.5269 36.0658 31.626 36.0998C32.9956 36.602 32.9956 36.602 33.3285 37.2856C33.3389 37.8788 33.284 38.169 32.9012 38.6249C32.2357 38.9865 31.6057 39.0913 30.861 38.9268C30.5511 38.8213 30.5511 38.8213 30.0526 38.5713C30.0056 38.4299 29.9586 38.2885 29.9102 38.1428C30.0982 37.9542 30.2862 37.7656 30.4799 37.5713C30.5533 37.6185 30.6268 37.6656 30.7024 37.7142C31.1607 37.9028 31.5562 37.876 32.0466 37.857C32.0466 37.7628 32.0466 37.6685 32.0466 37.5713C31.9488 37.5351 31.8509 37.4988 31.7501 37.4614C31.6217 37.4122 31.4934 37.3631 31.3612 37.3124C31.2339 37.2643 31.1067 37.2163 30.9756 37.1668C30.4966 36.9405 30.2581 36.7385 30.0704 36.241C30.0463 35.7206 30.2083 35.4376 30.4799 34.9999C31.1133 34.5764 31.7306 34.6391 32.4739 34.7142Z" fill="#FAF8F6"/>
<path d="M55.4051 34.7143C55.9378 34.9433 56.079 35.0853 56.4021 35.5714C56.2141 35.76 56.0261 35.9486 55.8324 36.1429C55.712 36.0928 55.5915 36.0427 55.4674 35.9911C54.9137 35.8396 54.5385 35.8881 53.9808 36C53.7291 36.6942 53.7291 36.6942 53.8028 37.4107C53.9554 37.7339 53.9554 37.7339 54.2657 37.8572C54.7642 37.8929 54.7642 37.8929 55.2627 37.8572C55.3567 37.7629 55.4507 37.6686 55.5475 37.5714C55.8502 37.625 55.8502 37.625 56.1173 37.7143C56.1173 37.8086 56.1173 37.9029 56.1173 38C56.2113 38 56.3053 38 56.4021 38C56.2646 38.3637 56.126 38.5638 55.8324 38.8214C55.2107 39.0813 54.6448 39.0982 53.9808 39C53.4912 38.7411 53.4912 38.7411 53.1262 38.4286C53.0522 38.3654 52.9782 38.3023 52.902 38.2372C52.5041 37.7724 52.4511 37.1674 52.4141 36.5714C52.6244 35.8144 52.9666 35.3703 53.5535 34.8572C54.1119 34.5771 54.7949 34.6639 55.4051 34.7143Z" fill="#FAF8F6"/>
<path d="M11.6796 33.5535C12.1069 33.5713 12.1069 33.5713 12.2494 33.7142C12.2552 34.0475 12.2554 34.3809 12.2494 34.7142C12.4917 34.7098 12.4917 34.7098 12.739 34.7053C13.2464 34.7142 13.2464 34.7142 13.3888 34.857C13.3946 35.1427 13.3949 35.4285 13.3888 35.7142C13.0128 35.7142 12.6368 35.7142 12.2494 35.7142C12.2964 36.4213 12.3434 37.1285 12.3918 37.857C12.6738 37.857 12.9558 37.857 13.2464 37.857C13.2464 38.187 13.2464 38.517 13.2464 38.857C12.7374 39.1123 12.1781 39.052 11.6351 38.9195C11.248 38.5888 11.1755 38.1995 11.1099 37.7142C11.0325 36.1552 11.0325 36.1552 11.2523 35.7142C11.0643 35.7142 10.8763 35.7142 10.6826 35.7142C10.6826 35.3842 10.6826 35.0542 10.6826 34.7142C10.8236 34.667 10.9646 34.6199 11.1099 34.5713C11.107 34.4328 11.104 34.2944 11.101 34.1517C11.1127 33.5772 11.1127 33.5772 11.6796 33.5535Z" fill="#FAF8F6"/>
<path d="M31.0498 0.142822C33.6349 0.189965 36.22 0.237108 38.8835 0.285679C38.8835 0.332822 38.8835 0.379965 38.8835 0.428537C36.4864 0.428537 34.0893 0.428537 31.6195 0.428537C31.6195 8.96139 31.6195 17.4942 31.6195 26.2857C33.4526 26.2857 35.2857 26.2857 37.1743 26.2857C37.1743 21.0528 37.1743 15.82 37.1743 10.4285C37.2683 10.4285 37.3623 10.4285 37.4592 10.4285C37.4122 15.7085 37.3652 20.9885 37.3167 26.4285C35.3897 26.4285 33.4626 26.4285 31.4771 26.4285C31.4743 25.6569 31.4715 24.8853 31.4685 24.0902C31.459 21.5454 31.448 19.0006 31.4361 16.4558C31.429 14.9124 31.4224 13.369 31.417 11.8255C31.4123 10.4805 31.4066 9.13545 31.3998 7.79043C31.3962 7.07804 31.3931 6.36565 31.3912 5.65325C31.3893 4.98302 31.3862 4.3128 31.382 3.64258C31.3807 3.39633 31.3799 3.15008 31.3796 2.90383C31.3792 2.56807 31.377 2.23236 31.3743 1.89662C31.3735 1.70857 31.3728 1.52052 31.3719 1.32678C31.3371 0.888246 31.2745 0.654454 31.0498 0.285679C31.0498 0.238537 31.0498 0.191394 31.0498 0.142822Z" fill="#FAF8F6"/>
<path d="M114.229 33.5715C114.229 33.9487 114.229 34.3258 114.229 34.7144C114.605 34.7144 114.981 34.7144 115.368 34.7144C115.368 35.0444 115.368 35.3744 115.368 35.7144C114.992 35.7144 114.616 35.7144 114.229 35.7144C114.276 36.4687 114.323 37.223 114.371 38.0001C114.865 37.9294 114.865 37.9294 115.368 37.8572C115.395 38.268 115.395 38.268 115.368 38.7144C114.836 39.0703 114.574 39.0655 113.944 39.0001C113.558 38.7981 113.558 38.7981 113.232 38.4287C113.144 37.9616 113.165 37.509 113.187 37.0358C113.191 36.9089 113.194 36.7821 113.197 36.6513C113.205 36.3388 113.217 36.0267 113.232 35.7144C113.044 35.7144 112.856 35.7144 112.662 35.7144C112.662 35.3844 112.662 35.0544 112.662 34.7144C112.85 34.7144 113.038 34.7144 113.232 34.7144C113.232 34.3844 113.232 34.0544 113.232 33.7144C113.659 33.5715 113.659 33.5715 114.229 33.5715Z" fill="#FAF8F6"/>
<path d="M123.487 0.285645C123.824 0.313546 123.824 0.313546 124.199 0.428502C124.383 0.739886 124.383 0.739886 124.511 1.12493C124.663 1.57198 124.789 1.88788 125.054 2.28564C125.097 2.15324 125.14 2.02083 125.184 1.88442C125.244 1.71334 125.304 1.54226 125.365 1.366C125.423 1.19529 125.481 1.02458 125.541 0.848703C125.766 0.428502 125.766 0.428502 126.138 0.289551C126.25 0.288262 126.362 0.286973 126.478 0.285645C126.62 0.428502 126.62 0.428502 126.637 0.759452C126.636 0.902342 126.635 1.04523 126.634 1.19245C126.634 1.34668 126.633 1.50091 126.633 1.65981C126.632 1.82214 126.631 1.98447 126.629 2.15172C126.629 2.3146 126.628 2.47748 126.627 2.6453C126.626 3.04923 126.623 3.45315 126.62 3.85707C126.432 3.85707 126.244 3.85707 126.051 3.85707C126.042 3.76758 126.033 3.67808 126.025 3.58587C126.013 3.46912 126.001 3.35236 125.988 3.23207C125.977 3.11606 125.965 3.00004 125.953 2.88051C125.924 2.56525 125.924 2.56525 125.766 2.28564C125.578 2.80422 125.39 3.32279 125.196 3.85707C125.008 3.85707 124.82 3.85707 124.626 3.85707C124.438 3.3385 124.25 2.81993 124.057 2.28564C123.963 2.80422 123.869 3.32279 123.772 3.85707C123.584 3.85707 123.396 3.85707 123.202 3.85707C123.222 3.31536 123.243 2.77372 123.264 2.23207C123.27 2.07775 123.276 1.92343 123.281 1.76444C123.287 1.61712 123.293 1.4698 123.3 1.31801C123.305 1.18185 123.31 1.0457 123.315 0.905413C123.345 0.571359 123.345 0.571359 123.487 0.285645Z" fill="#FAF8F6"/>
<path d="M74.7764 33.1428C75.1524 33.1428 75.5284 33.1428 75.9158 33.1428C75.9158 35.0757 75.9158 37.0085 75.9158 39C75.5398 39 75.1638 39 74.7764 39C74.7764 37.0671 74.7764 35.1343 74.7764 33.1428Z" fill="#FAF8F6"/>
<path d="M56.9727 33.1428C57.3017 33.1428 57.6307 33.1428 57.9697 33.1428C58.1121 33.2857 58.1121 33.2857 58.1283 33.8265C58.1282 34.0675 58.1274 34.3086 58.126 34.5496C58.1258 34.6763 58.1256 34.8029 58.1254 34.9334C58.1246 35.3395 58.1228 35.7456 58.121 36.1518C58.1203 36.4264 58.1196 36.701 58.1191 36.9757C58.1175 37.6505 58.115 38.3252 58.1121 39C57.7361 39 57.3601 39 56.9727 39C56.9727 37.0671 56.9727 35.1343 56.9727 33.1428Z" fill="#FAF8F6"/>
<path d="M20.7948 34.5715C20.7948 34.9487 20.7948 35.3258 20.7948 35.7144C20.5444 35.8027 20.294 35.8911 20.0437 35.9795C19.6849 36.218 19.631 36.4459 19.5129 36.8572C19.4762 37.1777 19.4498 37.4994 19.4328 37.8215C19.3846 38.7002 19.3846 38.7002 19.228 38.8572C18.8007 38.8751 18.8007 38.8751 18.3734 38.8572C18.231 38.7144 18.231 38.7144 18.2148 38.331C18.2156 38.1642 18.2163 37.9973 18.2171 37.8254C18.2176 37.6454 18.218 37.4654 18.2185 37.28C18.2197 37.0885 18.2209 36.897 18.2221 36.7055C18.2228 36.5134 18.2235 36.3213 18.2241 36.1293C18.2257 35.6577 18.2281 35.186 18.231 34.7144C18.607 34.7144 18.983 34.7144 19.3705 34.7144C19.4175 34.8087 19.4645 34.903 19.5129 35.0001C19.6186 34.9294 19.7244 34.8587 19.8334 34.7858C20.225 34.5715 20.225 34.5715 20.7948 34.5715Z" fill="#FAF8F6"/>
<path d="M123.345 34.5715C123.345 34.9487 123.345 35.3258 123.345 35.7144C123.186 35.7763 123.027 35.8381 122.864 35.9019C122.323 36.1 122.323 36.1 122.063 36.5715C122.024 36.9381 121.997 37.2934 121.983 37.6608C121.937 38.6972 121.937 38.6972 121.778 38.8572C121.351 38.8751 121.351 38.8751 120.923 38.8572C120.781 38.7144 120.781 38.7144 120.765 38.331C120.765 38.1642 120.766 37.9973 120.767 37.8254C120.767 37.6454 120.768 37.4654 120.768 37.28C120.769 37.0885 120.771 36.897 120.772 36.7055C120.773 36.5134 120.773 36.3213 120.774 36.1293C120.776 35.6577 120.778 35.186 120.781 34.7144C121.157 34.7144 121.533 34.7144 121.92 34.7144C121.967 34.8087 122.014 34.903 122.063 35.0001C122.168 34.9294 122.274 34.8587 122.383 34.7858C122.775 34.5715 122.775 34.5715 123.345 34.5715Z" fill="#FAF8F6"/>
<path d="M106.681 33.1428C107.01 33.1428 107.339 33.1428 107.678 33.1428C107.678 35.0757 107.678 37.0085 107.678 39C107.349 39 107.02 39 106.681 39C106.681 37.0671 106.681 35.1343 106.681 33.1428Z" fill="#FAF8F6"/>
<path d="M50.7056 34.7144C51.0816 34.7144 51.4577 34.7144 51.8451 34.7144C51.8451 36.1286 51.8451 37.5429 51.8451 39.0001C51.5161 39.0001 51.187 39.0001 50.8481 39.0001C50.7056 38.8572 50.7056 38.8572 50.6895 38.4607C50.6902 38.2879 50.6909 38.1151 50.6917 37.937C50.6922 37.7506 50.6926 37.5641 50.6931 37.372C50.6943 37.1736 50.6955 36.9752 50.6967 36.7769C50.6974 36.5779 50.6981 36.379 50.6987 36.18C50.7004 35.6915 50.7027 35.2029 50.7056 34.7144Z" fill="#FAF8F6"/>
<path d="M21.3643 34.7144C21.6933 34.7144 22.0223 34.7144 22.3613 34.7144C22.622 34.9758 22.5223 35.3904 22.5226 35.7411C22.5229 36.0102 22.5229 36.0102 22.5232 36.2847C22.5227 36.4255 22.5227 36.4255 22.5223 36.5691C22.5215 36.856 22.5223 37.1429 22.5232 37.4298C22.523 37.6091 22.5228 37.7885 22.5226 37.9733C22.5225 38.1392 22.5223 38.3051 22.5221 38.4761C22.5037 38.8572 22.5037 38.8572 22.3613 39.0001C22.0323 39.0001 21.7032 39.0001 21.3643 39.0001C21.3643 37.5858 21.3643 36.1715 21.3643 34.7144Z" fill="#FAF8F6"/>
<path d="M28.6288 16.7144C28.7228 16.9029 28.8168 17.0915 28.9137 17.2858C28.8197 17.2858 28.7257 17.2858 28.6288 17.2858C28.6288 17.3801 28.6288 17.4744 28.6288 17.5715C28.507 17.5822 28.3852 17.593 28.2597 17.604C27.6942 17.6545 27.1289 17.7063 26.5636 17.759C26.412 17.7731 26.412 17.7731 26.2574 17.7875C24.9332 17.9124 23.6322 18.0683 22.3335 18.3639C21.9481 18.4265 21.7281 18.417 21.3649 18.2858C21.6469 18.2386 21.9289 18.1915 22.2195 18.1429C22.2195 18.0486 22.2195 17.9544 22.2195 17.8572C22.0785 17.8808 21.9375 17.9044 21.7922 17.9286C21.2186 18.0122 20.662 18.0103 20.083 18.0001C20.083 17.9529 20.083 17.9058 20.083 17.8572C22.8788 17.468 25.6695 17.284 28.4864 17.1429C28.5334 17.0015 28.5804 16.8601 28.6288 16.7144Z" fill="#FAF8F6"/>
<path d="M120.211 0.285645C121.057 0.285645 121.903 0.285645 122.775 0.285645C122.775 0.474216 122.775 0.662787 122.775 0.857073C122.446 0.857073 122.117 0.857073 121.778 0.857073C121.778 1.84707 121.778 2.83707 121.778 3.85707C121.684 3.90422 121.59 3.95136 121.493 3.99993C121.399 3.95279 121.305 3.90565 121.208 3.85707C121.208 2.86707 121.208 1.87707 121.208 0.857073C120.879 0.857073 120.55 0.857073 120.211 0.857073C120.211 0.668502 120.211 0.47993 120.211 0.285645Z" fill="#FAF8F6"/>
<path d="M28.2009 33.4285C28.6239 33.4285 29.0469 33.4285 29.4828 33.4285C29.4943 33.6784 29.5026 33.9284 29.5095 34.1785C29.5144 34.3177 29.5194 34.4569 29.5245 34.6003C29.4762 35.0625 29.3841 35.2477 29.0555 35.5713C28.5302 35.6785 28.5302 35.6785 28.0584 35.7142C28.0114 35.5728 27.9644 35.4313 27.916 35.2856C28.104 35.097 28.292 34.9085 28.4857 34.7142C28.3917 34.7142 28.2977 34.7142 28.2009 34.7142C28.2009 34.2899 28.2009 33.8656 28.2009 33.4285Z" fill="#FAF8F6"/>
<path d="M87.1674 33.4285C88.2954 33.4285 89.4235 33.4285 90.5857 33.4285C90.5857 33.4756 90.5857 33.5228 90.5857 33.5713C89.5516 33.5713 88.5176 33.5713 87.4522 33.5713C87.4522 35.2685 87.4522 36.9656 87.4522 38.7142C87.6872 38.7142 87.9222 38.7142 88.1644 38.7142C88.1644 38.1013 88.1644 37.4885 88.1644 36.857C88.5874 36.857 89.0104 36.857 89.4462 36.857C89.4462 36.9042 89.4462 36.9513 89.4462 36.9999C89.0702 36.9999 88.6942 36.9999 88.3068 36.9999C88.3068 37.6128 88.3068 38.2256 88.3068 38.857C87.9745 38.8631 87.6421 38.8629 87.3098 38.857C87.0297 38.5761 87.1277 38.0376 87.1173 37.6528C87.114 37.5462 87.1107 37.4396 87.1073 37.3298C87.1005 37.1038 87.0941 36.8778 87.0879 36.6518C87.0784 36.3059 87.0673 35.9601 87.0561 35.6143C87.0497 35.395 87.0434 35.1757 87.0372 34.9564C87.0338 34.8528 87.0304 34.7492 87.0269 34.6425C87.0157 34.1938 87.0245 33.8582 87.1674 33.4285Z" fill="#FAF8F6"/>
<path d="M18.231 34.7144C18.607 34.7144 18.983 34.7144 19.3705 34.7144C19.4175 34.8086 19.4645 34.9029 19.5129 35.0001C19.6539 35.0001 19.7949 35.0001 19.9402 35.0001C19.7052 35.1886 19.4702 35.3772 19.228 35.5715C19.228 35.3358 19.228 35.1001 19.228 34.8572C18.993 34.8572 18.758 34.8572 18.5159 34.8572C18.5159 36.0829 18.5159 37.3086 18.5159 38.5715C18.7509 38.5715 18.9859 38.5715 19.228 38.5715C19.2247 38.4304 19.2214 38.2894 19.218 38.144C19.2142 37.8695 19.2142 37.8695 19.2102 37.5894C19.2069 37.407 19.2036 37.2247 19.2002 37.0369C19.228 36.5715 19.228 36.5715 19.5129 36.2858C19.4929 36.6876 19.472 37.0894 19.4506 37.4911C19.4422 37.6631 19.4422 37.6631 19.4336 37.8385C19.3866 38.6982 19.3866 38.6982 19.228 38.8572C18.8007 38.8751 18.8007 38.8751 18.3734 38.8572C18.231 38.7144 18.231 38.7144 18.2148 38.331C18.2156 38.1641 18.2163 37.9973 18.2171 37.8254C18.2176 37.6454 18.218 37.4654 18.2185 37.2799C18.2197 37.0884 18.2209 36.8969 18.2221 36.7054C18.2228 36.5134 18.2235 36.3213 18.2241 36.1293C18.2257 35.6576 18.2281 35.186 18.231 34.7144Z" fill="#FAF8F6"/>
<path d="M123.487 0.285645C123.722 0.332787 123.957 0.37993 124.199 0.428502C124.246 0.617073 124.293 0.805645 124.342 0.99993C124.248 0.905645 124.154 0.811359 124.057 0.714216C123.916 0.714216 123.775 0.714216 123.629 0.714216C123.629 0.855645 123.629 0.997073 123.629 1.14279C123.77 1.18993 123.911 1.23707 124.057 1.28564C124.037 1.63391 124.016 1.9821 123.994 2.33029C123.986 2.47821 123.986 2.47821 123.977 2.62912C123.95 3.0673 123.911 3.43846 123.772 3.85707C123.584 3.85707 123.396 3.85707 123.202 3.85707C123.222 3.31536 123.243 2.77372 123.264 2.23207C123.27 2.07775 123.276 1.92343 123.281 1.76444C123.287 1.61712 123.293 1.4698 123.3 1.31801C123.305 1.18185 123.31 1.0457 123.315 0.905413C123.345 0.571359 123.345 0.571359 123.487 0.285645Z" fill="#FAF8F6"/>
<path d="M120.781 34.7144C121.157 34.7144 121.533 34.7144 121.92 34.7144C121.967 34.9501 122.014 35.1858 122.063 35.4286C121.922 35.4994 121.922 35.4994 121.778 35.5715C121.778 35.3358 121.778 35.1001 121.778 34.8572C121.496 34.8572 121.214 34.8572 120.923 34.8572C120.97 36.0829 121.017 37.3086 121.066 38.5715C121.301 38.5715 121.536 38.5715 121.778 38.5715C121.778 37.8644 121.778 37.1572 121.778 36.4286C121.872 36.3815 121.966 36.3344 122.063 36.2858C122.043 36.6876 122.022 37.0894 122 37.4911C121.992 37.6631 121.992 37.6631 121.983 37.8385C121.936 38.6982 121.936 38.6982 121.778 38.8572C121.351 38.8751 121.351 38.8751 120.923 38.8572C120.781 38.7144 120.781 38.7144 120.765 38.331C120.765 38.1641 120.766 37.9973 120.767 37.8254C120.767 37.6454 120.768 37.4654 120.768 37.2799C120.769 37.0884 120.771 36.8969 120.772 36.7054C120.773 36.5134 120.773 36.3213 120.774 36.1293C120.776 35.6576 120.778 35.186 120.781 34.7144Z" fill="#FAF8F6"/>
<path d="M125.908 0.571533C126.096 0.571533 126.284 0.571533 126.478 0.571533C126.596 1.29132 126.636 1.97333 126.629 2.70546C126.629 2.80315 126.628 2.90085 126.627 3.0015C126.626 3.23914 126.623 3.47676 126.62 3.71439C126.479 3.71439 126.338 3.71439 126.193 3.71439C126.099 2.67725 126.005 1.6401 125.908 0.571533Z" fill="#FAF8F6"/>
<path d="M51.3555 33.134C51.517 33.137 51.6786 33.1399 51.8451 33.143C51.8993 33.4753 51.9466 33.8088 51.9875 34.143C51.8451 34.2858 51.8451 34.2858 51.5819 34.2998C51.2898 34.2951 50.9977 34.2905 50.7056 34.2858C50.6996 33.9525 50.6998 33.6191 50.7056 33.2858C50.8481 33.143 50.8481 33.143 51.3555 33.134Z" fill="#FAF8F6"/>
<path d="M21.3646 33.1428C21.6937 33.1428 22.0227 33.1428 22.3617 33.1428C22.6465 34.125 22.6465 34.125 22.6465 34.2857C22.2235 34.2857 21.8005 34.2857 21.3646 34.2857C21.1608 33.8769 21.2792 33.5809 21.3646 33.1428Z" fill="#FAF8F6"/>
<path d="M22.4865 17.7052C22.6253 17.7059 22.7641 17.7065 22.9071 17.7072C23.2476 17.7089 23.5881 17.7112 23.9286 17.7142C23.7876 17.7613 23.6466 17.8085 23.5013 17.857C23.5013 17.9513 23.5013 18.0456 23.5013 18.1427C23.2524 18.1948 23.0031 18.2451 22.7536 18.2945C22.6148 18.3227 22.476 18.3509 22.333 18.3799C21.9534 18.4262 21.7226 18.4078 21.3649 18.2856C21.6469 18.2385 21.9289 18.1913 22.2195 18.1427C22.2195 18.0485 22.2195 17.9542 22.2195 17.857C22.0785 17.8806 21.9375 17.9042 21.7922 17.9285C21.2186 18.012 20.662 18.0101 20.083 17.9999C20.083 17.9527 20.083 17.9056 20.083 17.857C20.8856 17.6849 21.6704 17.698 22.4865 17.7052Z" fill="#FAF8F6"/>
<path d="M120.638 7.85718C120.923 8.14289 120.923 8.14289 120.923 8.57146C118.808 8.52432 116.693 8.47718 114.514 8.42861C114.514 8.28718 114.514 8.14575 114.514 8.00003C114.561 8.04718 114.608 8.09432 114.656 8.14289C115.098 8.16581 115.537 8.17998 115.979 8.18809C116.177 8.19255 116.177 8.19255 116.38 8.19709C116.806 8.20646 117.231 8.21486 117.656 8.22325C117.944 8.22942 118.231 8.23565 118.519 8.24194C119.225 8.25727 119.932 8.27174 120.638 8.28575C120.638 8.14432 120.638 8.00289 120.638 7.85718Z" fill="#FAF8F6"/>
<path d="M100.271 2.85718C100.042 3.43301 99.6356 3.82281 99.203 4.25003C99.1319 4.32241 99.0609 4.39478 98.9877 4.46934C98.4557 5.00003 98.4557 5.00003 98.1348 5.00003C98.3644 4.4242 98.7703 4.0344 99.203 3.60718C99.274 3.53481 99.3451 3.46243 99.4183 3.38787C99.9503 2.85718 99.9503 2.85718 100.271 2.85718Z" fill="#FAF8F6"/>
<path d="M7.12151 21C6.51049 21.2357 5.89946 21.4714 5.26992 21.7142C5.26992 21.95 5.26992 22.1857 5.26992 22.4285C5.07399 22.2443 4.88426 22.0533 4.7002 21.8571C4.7002 21.7628 4.7002 21.6685 4.7002 21.5714C5.1141 21.3919 5.3833 21.2857 5.83964 21.2857C5.88664 21.1914 5.93364 21.0971 5.98207 21C6.44983 20.8641 6.65106 20.8427 7.12151 21Z" fill="#FAF8F6"/>
<path d="M50.8477 33.4285C51.1297 33.4285 51.4117 33.4285 51.7022 33.4285C51.7022 33.6642 51.7022 33.8999 51.7022 34.1428C51.4202 34.1428 51.1382 34.1428 50.8477 34.1428C50.8477 33.907 50.8477 33.6713 50.8477 33.4285Z" fill="#FAF8F6"/>
<path d="M21.5068 33.4285C21.7888 33.4285 22.0709 33.4285 22.3614 33.4285C22.3614 33.6642 22.3614 33.8999 22.3614 34.1428C22.0794 34.1428 21.7974 34.1428 21.5068 34.1428C21.5068 33.907 21.5068 33.6713 21.5068 33.4285Z" fill="#FAF8F6"/>
<path d="M2.56416 17.2856C2.61116 17.4271 2.65816 17.5685 2.70659 17.7142C3.50562 17.7142 4.30466 17.7142 5.12791 17.7142C5.12791 17.7614 5.12791 17.8085 5.12791 17.8571C3.78835 17.9278 3.78835 17.9278 2.42173 17.9999C2.37473 17.9056 2.32772 17.8114 2.2793 17.7142C2.3733 17.7142 2.46731 17.7142 2.56416 17.7142C2.56416 17.5728 2.56416 17.4314 2.56416 17.2856Z" fill="#FAF8F6"/>
<path d="M123.63 0.571533C123.912 0.642247 123.912 0.642247 124.199 0.71439C124.246 1.04439 124.293 1.37439 124.342 1.71439C124.248 1.71439 124.154 1.71439 124.057 1.71439C124.01 1.57296 123.963 1.43153 123.915 1.28582C123.774 1.28582 123.633 1.28582 123.487 1.28582C123.534 1.0501 123.581 0.81439 123.63 0.571533Z" fill="#FAF8F6"/>
<path d="M12.6764 7.85718C12.4548 8.4028 12.1129 8.75153 11.6794 9.14289C11.5854 9.14289 11.4914 9.14289 11.3945 9.14289C11.6143 8.60172 12.0431 7.85718 12.6764 7.85718Z" fill="#FAF8F6"/>
<path d="M124.342 1C124.576 1.42384 124.689 1.80804 124.769 2.28571C124.628 2.23857 124.487 2.19143 124.342 2.14286C124.294 2.28429 124.247 2.42571 124.199 2.57143C124.152 2.28857 124.105 2.00571 124.057 1.71429C124.151 1.71429 124.245 1.71429 124.342 1.71429C124.342 1.47857 124.342 1.24286 124.342 1Z" fill="#FAF8F6"/>
<path d="M115.369 37.8572C115.369 38.14 115.369 38.4229 115.369 38.7143C115.228 38.785 115.228 38.785 115.084 38.8572C115.084 38.6215 115.084 38.3857 115.084 38.1429C114.849 38.1429 114.614 38.1429 114.372 38.1429C114.749 37.9342 114.927 37.8572 115.369 37.8572Z" fill="#FAF8F6"/>
<path d="M60.1054 34.8572C59.9224 35.2667 59.7392 35.568 59.3933 35.8572C59.2993 35.8572 59.2053 35.8572 59.1084 35.8572C59.5553 34.8572 59.5553 34.8572 60.1054 34.8572Z" fill="#FAF8F6"/>
<path d="M19.6553 16.8572C20.2663 16.8572 20.8773 16.8572 21.5069 16.8572C21.5069 16.9515 21.5069 17.0457 21.5069 17.1429C20.9428 17.1429 20.3788 17.1429 19.7977 17.1429C19.7507 17.2372 19.7037 17.3315 19.6553 17.4286C19.6553 17.24 19.6553 17.0515 19.6553 16.8572Z" fill="#FAF8F6"/>
<path d="M28.4863 17.7144C28.4393 17.9972 28.3923 18.2801 28.3438 18.5715C28.2968 18.3829 28.2498 18.1944 28.2014 18.0001C27.9664 18.0001 27.7314 18.0001 27.4893 18.0001C27.9165 17.7144 27.9165 17.7144 28.4863 17.7144Z" fill="#FAF8F6"/>
<path d="M25.7803 17.8572C26.1093 17.8572 26.4383 17.8572 26.7773 17.8572C26.4002 18.0658 26.2226 18.1429 25.7803 18.1429C25.7803 18.0486 25.7803 17.9543 25.7803 17.8572Z" fill="#FAF8F6"/>
<path d="M50.9902 34.4285C51.2722 34.4285 51.5543 34.4285 51.8448 34.4285C51.8448 34.4756 51.8448 34.5228 51.8448 34.5713C51.5628 34.5713 51.2808 34.5713 50.9902 34.5713C50.9902 34.5242 50.9902 34.477 50.9902 34.4285Z" fill="#FAF8F6"/>
<path d="M101.269 35C101.316 35 101.363 35 101.411 35C101.411 35.2357 101.411 35.4714 101.411 35.7143C101.364 35.7143 101.317 35.7143 101.269 35.7143C101.269 35.4786 101.269 35.2429 101.269 35Z" fill="#FAF8F6"/>
<path d="M31.7617 37.5715C31.8557 37.5715 31.9497 37.5715 32.0466 37.5715C32.0466 37.6658 32.0466 37.7601 32.0466 37.8572C31.9526 37.8572 31.8586 37.8572 31.7617 37.8572C31.7617 37.763 31.7617 37.6687 31.7617 37.5715Z" fill="#FAF8F6"/>
<path d="M44.4385 37.4285C45.0082 37.5713 45.0082 37.5713 45.0082 37.5713L44.4385 37.4285Z" fill="#FAF8F6"/>
<path d="M27.6318 35.2856C27.7258 35.3799 27.8198 35.4742 27.9167 35.5714C27.7757 35.6421 27.7757 35.6421 27.6318 35.7142C27.6318 35.5728 27.6318 35.4314 27.6318 35.2856Z" fill="#FAF8F6"/>
<path d="M10.1123 35.1428C10.2063 35.1428 10.3003 35.1428 10.3972 35.1428C10.3502 35.2843 10.3032 35.4257 10.2547 35.5714C10.2077 35.43 10.1607 35.2885 10.1123 35.1428Z" fill="#FAF8F6"/>
<path d="M11.252 25.8572C11.393 25.9043 11.534 25.9515 11.6792 26C11.5382 26.0472 11.3972 26.0943 11.252 26.1429C11.252 26.0486 11.252 25.9543 11.252 25.8572Z" fill="#FAF8F6"/>
<path d="M22.5039 19.1428C22.6449 19.19 22.7859 19.2371 22.9312 19.2857C22.7902 19.3328 22.6492 19.38 22.5039 19.4285C22.5039 19.3343 22.5039 19.24 22.5039 19.1428Z" fill="#FAF8F6"/>
<path d="M23.501 17.1428C24.0707 17.2857 24.0707 17.2857 24.0707 17.2857L23.501 17.1428Z" fill="#FAF8F6"/>
<path d="M18.9434 16.1428C19.0844 16.19 19.2254 16.2371 19.3707 16.2857C19.2296 16.2857 19.0886 16.2857 18.9434 16.2857C18.9434 16.2385 18.9434 16.1914 18.9434 16.1428Z" fill="#FAF8F6"/>
<path d="M52.5566 12C52.6991 12.5714 52.6991 12.5714 52.6991 12.5714L52.5566 12Z" fill="#FAF8F6"/>
<path d="M122.633 0C122.774 0.0471429 122.915 0.0942857 123.06 0.142857C122.919 0.142857 122.778 0.142857 122.633 0.142857C122.633 0.0957143 122.633 0.0485714 122.633 0Z" fill="#FAF8F6"/>
<path d="M23.3584 38.1428C23.4524 38.2371 23.5464 38.3314 23.6433 38.4285C23.5493 38.4285 23.4553 38.4285 23.3584 38.4285C23.3584 38.3343 23.3584 38.24 23.3584 38.1428Z" fill="#FAF8F6"/>
<path d="M20.9375 34.7144C21.0315 34.7144 21.1255 34.7144 21.2224 34.7144C21.1754 34.8086 21.1284 34.9029 21.0799 35.0001C21.0329 34.9058 20.9859 34.8115 20.9375 34.7144Z" fill="#FAF8F6"/>
<path d="M21.3643 34.4285C21.7915 34.5713 21.7915 34.5713 21.7915 34.5713L21.3643 34.4285Z" fill="#FAF8F6"/>
<path d="M0.142578 34.2856C0.283584 34.3564 0.283584 34.3564 0.427439 34.4285C0.286433 34.4992 0.286433 34.4992 0.142578 34.5714C0.142578 34.4771 0.142578 34.3828 0.142578 34.2856Z" fill="#FAF8F6"/>
<path d="M13.5312 24C13.6723 24.0707 13.6723 24.0707 13.8161 24.1429C13.6751 24.2136 13.6751 24.2136 13.5312 24.2857C13.5312 24.1914 13.5312 24.0971 13.5312 24Z" fill="#FAF8F6"/>
<path d="M22.9316 19C23.3589 19.1429 23.3589 19.1429 23.3589 19.1429L22.9316 19Z" fill="#FAF8F6"/>
<path d="M18.9434 17.7144C19.3707 17.8572 19.3707 17.8572 19.3707 17.8572L18.9434 17.7144Z" fill="#FAF8F6"/>
<path d="M12.1064 12.7144C12.2004 12.8086 12.2945 12.9029 12.3913 13.0001C12.2973 13.0001 12.2033 13.0001 12.1064 13.0001C12.1064 12.9058 12.1064 12.8115 12.1064 12.7144Z" fill="#FAF8F6"/>
<path d="M54.8359 39.1428C55.1208 39.2857 55.1208 39.2857 55.1208 39.2857L54.8359 39.1428Z" fill="#FAF8F6"/>
<path d="M96.5684 37.5715C96.8532 37.7144 96.8532 37.7144 96.8532 37.7144L96.5684 37.5715Z" fill="#FAF8F6"/>
<path d="M79.4766 37.4285C79.7614 37.5713 79.7614 37.5713 79.7614 37.5713L79.4766 37.4285Z" fill="#FAF8F6"/>
<path d="M61.2451 37.4285C61.53 37.5713 61.53 37.5713 61.53 37.5713L61.2451 37.4285Z" fill="#FAF8F6"/>
<path d="M70.9307 36C71.2155 36.1429 71.2155 36.1429 71.2155 36.1429L70.9307 36Z" fill="#FAF8F6"/>
<path d="M15.8096 36C16.0944 36.1429 16.0944 36.1429 16.0944 36.1429L15.8096 36Z" fill="#FAF8F6"/>
<path d="M20.2256 35.8572C20.5104 36 20.5104 36 20.5104 36L20.2256 35.8572Z" fill="#FAF8F6"/>
<path d="M99.7012 23.8572C99.986 24 99.986 24 99.986 24L99.7012 23.8572Z" fill="#FAF8F6"/>
<path d="M98.1348 22.2856C98.4196 22.4285 98.4196 22.4285 98.4196 22.4285L98.1348 22.2856Z" fill="#FAF8F6"/>
<path d="M6.97949 20.5715C7.26435 20.7144 7.26435 20.7144 7.26435 20.7144L6.97949 20.5715Z" fill="#FAF8F6"/>
<path d="M19.9404 20.2856C20.2253 20.4285 20.2253 20.4285 20.2253 20.4285L19.9404 20.2856Z" fill="#FAF8F6"/>
<path d="M7.97656 20.2856C8.26142 20.4285 8.26142 20.4285 8.26142 20.4285L7.97656 20.2856Z" fill="#FAF8F6"/>
<path d="M20.5098 20C20.7946 20.1429 20.7946 20.1429 20.7946 20.1429L20.5098 20Z" fill="#FAF8F6"/>
<path d="M8.68848 20C8.97334 20.1429 8.97334 20.1429 8.97334 20.1429L8.68848 20Z" fill="#FAF8F6"/>
<path d="M9.40039 19.8572C9.68525 20 9.68525 20 9.68525 20L9.40039 19.8572Z" fill="#FAF8F6"/>
<path d="M10.9668 19.4285C11.2517 19.5713 11.2517 19.5713 11.2517 19.5713L10.9668 19.4285Z" fill="#FAF8F6"/>
<path d="M12.8184 19C13.1032 19.1429 13.1032 19.1429 13.1032 19.1429L12.8184 19Z" fill="#FAF8F6"/>
<path d="M25.21 18.2856C25.4948 18.4285 25.4948 18.4285 25.4948 18.4285L25.21 18.2856Z" fill="#FAF8F6"/>
<path d="M12.3916 16.1428C12.6765 16.2857 12.6765 16.2857 12.6765 16.2857L12.3916 16.1428Z" fill="#FAF8F6"/>
<path d="M117.647 3.28564C117.932 3.4285 117.932 3.4285 117.932 3.4285L117.647 3.28564Z" fill="#FAF8F6"/>
<path d="M111.523 0C111.808 0.142857 111.808 0.142857 111.808 0.142857L111.523 0Z" fill="#FAF8F6"/>
<path d="M92.5801 0C92.8649 0.142857 92.8649 0.142857 92.8649 0.142857L92.5801 0Z" fill="#FAF8F6"/>
</g>
<defs>
<clipPath id="clip0_208_504">
<rect width="126.621" height="40" fill="white"/>
</clipPath>
</defs>
</svg>
